<?xml version="1.0" encoding="utf-8"?>
<!-- Generator: Adobe Illustrator 28.2.0, SVG Export Plug-In . SVG Version: 6.00 Build 0)  -->
<svg version="1.1" id="Calque_1" xmlns="http://www.w3.org/2000/svg" xmlns:xlink="http://www.w3.org/1999/xlink" x="0px" y="0px"
	 viewBox="0 0 500 500" style="enable-background:new 0 0 500 500;" xml:space="preserve">
<style type="text/css">
	.st0{fill:#D93832;}
	.st1{fill:#FFFFFF;}
	.st2{font-family:'ZOMBIES';}
	.st3{font-size:112.8px;}
	.st4{font-family:'SansSerifExbFLFCond-Italic';}
	.st5{font-size:106.81px;}
	.st6{letter-spacing:2.7;}
</style>
<path class="st0" d="M360.9,326.4c-0.7-1.5-2.2-2.4-3.9-2.4h-56l-6.2,8.6v0.1h53.5l-59.5,80.1l-30.2-40.7l66.6-90.4
	c1-1.3,1.1-3.1,0.4-4.6s-2.2-2.4-3.9-2.4H183.9c-1.6,0-3.2,0.9-3.9,2.4s-0.6,3.2,0.4,4.6l31.3,42.1h-62.9c-1.6,0-3.2,0.9-3.9,2.4
	s-0.6,3.2,0.4,4.6L214,423c0.8,1.1,2.1,1.8,3.5,1.8h0c1.4,0,2.7-0.7,3.5-1.8l32-43.5l32.2,43.2c0.8,1.1,2.1,1.8,3.5,1.8
	s2.7-0.6,3.5-1.8l68.2-91.7C361.4,329.7,361.6,327.9,360.9,326.4L360.9,326.4z M217.5,413l-60-80.5h60.7l29.5,39.6L217.5,413
	L217.5,413z M253.1,364.8l-24.1-32h41.3l6.4-9h-54.2l-30-40.3H313L253.1,364.8L253.1,364.8z"/>
<g>
	<path class="st1" d="M73.9,472.7V457l-8.3,15.8h-4.6L52.7,457v15.8h-5.4V452h9.2l7,13.7l6.9-13.7h9.1v20.7H73.9z"/>
	<path class="st1" d="M89.1,472.7h-6.4L93.3,452h7.8l10.3,20.7H105l-1.8-3.8H91C91,469,89.1,472.7,89.1,472.7z M93,464.7h8.1
		l-4.1-8.2L93,464.7L93,464.7z"/>
	<path class="st1" d="M120.2,466.5c0,0.8,0.3,1.4,0.8,1.6c0.6,0.2,1.3,0.3,2.2,0.3h2.7l3.9-0.1c1.1,0,1.8-0.1,2.1-0.4
		c0.3-0.3,0.5-0.7,0.5-1.4c0-0.5-0.2-1-0.6-1.3c-0.4-0.3-1.1-0.5-2.1-0.5h-0.9l-9.5-0.2c-1.8,0-3-0.5-3.8-1.5
		c-0.7-1-1.1-2.5-1.1-4.5c0-1.7,0.2-3,0.7-4s1.3-1.6,2.5-2c0.7-0.2,1.4-0.3,2.2-0.5c0.8-0.1,1.7-0.2,2.6-0.2l4-0.1h4
		c0.8,0,1.6,0,2.2,0.1s1.2,0.2,1.7,0.4c1,0.2,1.6,0.8,2.1,1.5s0.7,1.4,0.8,2c0.1,0.6,0.2,1.5,0.2,2.5h-5.6c0-0.7-0.2-1.2-0.6-1.5
		c-0.4-0.3-0.9-0.5-1.6-0.5l-2.8,0l-4.4,0.1c-0.6,0-1,0.1-1.5,0.4c-0.4,0.2-0.6,0.6-0.6,1.2c0,0.8,0.2,1.3,0.7,1.6
		c0.2,0.1,0.5,0.2,0.8,0.3c0.3,0.1,0.7,0.1,1.2,0.1h8.3c2.5,0,4.2,0.4,5.3,1.3c1.1,0.8,1.7,2.5,1.7,5s-0.5,4.1-1.5,5
		s-2.6,1.4-4.9,1.4l-7.4,0.2l-3.9-0.1c-2.1,0-3.6-0.4-4.5-1.1c-1-0.7-1.4-2.2-1.4-4.4v-1.2h5.6L120.2,466.5L120.2,466.5z"/>
	<path class="st1" d="M148.1,466.5c0,0.8,0.3,1.4,0.8,1.6c0.6,0.2,1.3,0.3,2.2,0.3h2.7l3.9-0.1c1.1,0,1.8-0.1,2.1-0.4
		c0.3-0.3,0.5-0.7,0.5-1.4c0-0.5-0.2-1-0.6-1.3c-0.4-0.3-1.1-0.5-2.1-0.5h-0.9l-9.5-0.2c-1.8,0-3-0.5-3.8-1.5
		c-0.7-1-1.1-2.5-1.1-4.5c0-1.7,0.2-3,0.7-4s1.3-1.6,2.5-2c0.7-0.2,1.4-0.3,2.2-0.5c0.8-0.1,1.7-0.2,2.6-0.2l4-0.1h4
		c0.8,0,1.6,0,2.2,0.1s1.2,0.2,1.7,0.4c1,0.2,1.6,0.8,2.1,1.5s0.7,1.4,0.8,2c0.1,0.6,0.2,1.5,0.2,2.5h-5.6c0-0.7-0.2-1.2-0.6-1.5
		c-0.4-0.3-0.9-0.5-1.6-0.5l-2.8,0l-4.4,0.1c-0.6,0-1,0.1-1.5,0.4c-0.4,0.2-0.6,0.6-0.6,1.2c0,0.8,0.2,1.3,0.7,1.6
		c0.2,0.1,0.5,0.2,0.8,0.3c0.3,0.1,0.7,0.1,1.1,0.1h8.2c2.5,0,4.2,0.4,5.3,1.3c1.1,0.8,1.7,2.5,1.7,5s-0.5,4.1-1.5,5
		s-2.6,1.4-4.9,1.4l-7.4,0.2l-3.9-0.1c-2.1,0-3.6-0.4-4.5-1.1c-1-0.7-1.4-2.2-1.4-4.4v-1.2h5.6L148.1,466.5L148.1,466.5z"/>
	<path class="st1" d="M191.6,452v4.7h-15.3v3.5h14.3v4.1h-14.3v3.7h15.3v4.7h-21.1V452H191.6z"/>
	<path class="st1" d="M221.2,452l-10.6,13.5v7.2h-5.8v-7.2L194,452h7.3l6.4,8.5l6.4-8.5H221.2L221.2,452z"/>
	<path class="st1" d="M255,452v4.7h-14.6v3.5H255v4.1h-14.6v8.4h-5.9V452L255,452L255,452z"/>
	<path class="st1" d="M280.1,452v4.7h-15.7v3.5H279v4.1h-14.6v3.7h15.7v4.7h-21.5V452L280.1,452L280.1,452z"/>
	<path class="st1" d="M302.4,452c2.3,0,4,0.5,5,1.5c0.5,0.5,0.9,1.1,1.1,2s0.4,1.9,0.4,3.1v0.3c0,0.9,0,1.6-0.1,2.2
		s-0.3,1.1-0.6,1.6s-0.6,0.9-1,1.1c-0.3,0.2-1.1,0.5-2.4,1c1.3,0.2,2.3,0.5,3,1.1c0.7,0.5,1,1.5,1,2.9v4h-6v-2c0-1-0.1-1.8-0.2-2.4
		c-0.2-0.6-0.9-0.9-2.3-0.9h-9.8v5.3h-5.9V452L302.4,452L302.4,452z M299.9,462.4c1.3,0,2.2-0.2,2.5-0.5c0.3-0.4,0.5-1.1,0.5-2.4
		c0-0.7-0.1-1.2-0.2-1.5c-0.1-0.3-0.4-0.5-0.8-0.7l-1-0.2h-10.7v5.4L299.9,462.4L299.9,462.4z"/>
	<path class="st1" d="M338.5,461.1l0,4.4c0,2.6-0.4,4.5-1.2,5.7s-2.4,1.8-4.8,1.8h-9.6c-2.2,0-4-0.2-5.2-0.5c-1.3-0.3-2.3-1-3.1-2.1
		c-0.8-1.1-1.2-2.8-1.2-5l-0.1-2.6c0-4,0.5-6.8,1.4-8.4c0.9-1.5,3.1-2.3,6.5-2.3l4.4-0.1h1.6l3.9,0.1c2.5,0,4.4,0.5,5.5,1.4
		s1.7,2.7,1.7,5.4v0.4h-5.7c0-0.5-0.1-0.9-0.2-1.2s-0.4-0.6-0.7-0.7s-0.7-0.2-1.2-0.3h-1.5l-6.8-0.1c-1.4,0-2.3,0.4-2.6,1.1
		c-0.4,0.7-0.5,2-0.5,3.7v1.9c0,1.4,0.2,2.5,0.5,3.2c0.4,0.7,0.9,1.1,1.6,1.2l1.6,0.2h6.6c1,0,1.8-0.2,2.3-0.5c0.6-0.4,0.8-1,0.8-2
		V465h-7.5v-3.9L338.5,461.1L338.5,461.1z"/>
	<path class="st1" d="M367.9,463.9v1.2c0,3.2-0.8,5.3-2.4,6.4c-1.6,1-4,1.5-7.2,1.5h-4.8c-1.3,0-2.5,0-3.4-0.1
		c-0.9-0.1-1.8-0.2-2.5-0.3c-1.3-0.3-2.4-1-3.2-2.2c-0.8-1.2-1.3-3.1-1.3-5.6v-12.7h5.9v10.9c0,2,0.2,3.4,0.7,4c0.5,0.6,1.6,1,3.5,1
		h5.1c1.6,0,2.6-0.3,3.1-0.8c0.5-0.5,0.7-1.6,0.7-3.3v-11.8h5.9L367.9,463.9L367.9,463.9z"/>
	<path class="st1" d="M378.5,466.5c0,0.8,0.3,1.4,0.8,1.6c0.6,0.2,1.3,0.3,2.2,0.3h2.8l3.9-0.1c1.1,0,1.8-0.1,2.1-0.4
		c0.3-0.3,0.5-0.7,0.5-1.4c0-0.5-0.2-1-0.6-1.3s-1.1-0.5-2.1-0.5h-1l-9.7-0.2c-1.8,0-3.1-0.5-3.9-1.5c-0.7-1-1.1-2.5-1.1-4.5
		c0-1.7,0.2-3,0.7-4s1.3-1.6,2.6-2c0.7-0.2,1.4-0.3,2.2-0.5c0.8-0.1,1.7-0.2,2.6-0.2l4.1-0.1h4.1c0.9,0,1.6,0,2.2,0.1
		s1.2,0.2,1.8,0.4c1,0.2,1.7,0.8,2.1,1.5s0.7,1.4,0.8,2s0.2,1.5,0.2,2.5h-5.8c0-0.7-0.2-1.2-0.6-1.5c-0.4-0.3-1-0.5-1.7-0.5l-2.8,0
		l-4.5,0.1c-0.6,0-1.1,0.1-1.5,0.4c-0.4,0.2-0.6,0.6-0.6,1.2c0,0.8,0.2,1.3,0.7,1.6c0.2,0.1,0.5,0.2,0.9,0.3
		c0.3,0.1,0.7,0.1,1.2,0.1h8.4c2.5,0,4.3,0.4,5.4,1.3c1.1,0.8,1.7,2.5,1.7,5s-0.5,4.1-1.5,5c-1,0.9-2.7,1.4-5,1.4l-7.5,0.2l-3.9-0.1
		c-2.1,0-3.6-0.4-4.6-1.1c-1-0.7-1.5-2.2-1.5-4.4v-1.2h5.8L378.5,466.5L378.5,466.5z"/>
	<path class="st1" d="M413.8,451.8l4.7,0.1c3.4,0,5.8,0.6,7,1.8c1.3,1.2,1.9,3.6,1.9,7.3v1c0,4.3-0.5,7.2-1.5,8.6s-3.5,2.2-7.6,2.2
		l-4.4,0.1h-1.9l-4-0.1c-2.2,0-3.9-0.5-5.2-1.6s-1.8-2.9-1.8-5.3l-0.1-3.8c0-4.2,0.5-7,1.5-8.3c1-1.3,3.4-1.9,7.2-1.9L413.8,451.8
		L413.8,451.8z M410.6,467.9h6.2c1.6,0,2.8-0.2,3.6-0.6s1.1-1.3,1.1-2.9l0.1-2.8c0-0.9,0-1.8-0.2-2.4c-0.1-0.7-0.3-1.2-0.6-1.5
		s-0.8-0.5-1.4-0.6c-0.6-0.1-1.1-0.2-1.4-0.2s-0.5,0-0.7,0h-5.9c-1.4,0-2.4,0.1-3,0.4c-0.7,0.3-1.1,0.9-1.2,1.9l-0.1,2.4v1.4
		c0,1.9,0.2,3.2,0.6,3.9S409,467.9,410.6,467.9L410.6,467.9z"/>
	<path class="st1" d="M449.2,472.8l-11.6-15.6v15.6H432V452h9.4l11.6,15.5V452h5.5v20.7H449.2L449.2,472.8z"/>
</g>
<text transform="matrix(1 0 0 1 79.13 122.9)" class="st1 st2 st3">MOTIN</text>

</svg>
