<?xml version="1.0" encoding="UTF-8"?>
<svg id="Calque_1" data-name="Calque 1" xmlns="http://www.w3.org/2000/svg" viewBox="0 0 500 500">
  <defs>
    <style>
      .cls-1 {
        font-family: ZOMBIES, ZOMBIES;
        font-size: 112.8px;
      }

      .cls-2 {
        fill: #221f20;
      }

      .cls-2, .cls-3 {
        stroke-width: 4px;
      }

      .cls-3 {
        fill: #d93832;
      }

      .cls-4 {
        font-family: SansSerifExbFLFCond-Italic, SansSerifExbFLFCond;
        font-size: 106.81px;
        font-style: italic;
        letter-spacing: .03em;
      }
    </style>
  </defs>
  <path class="cls-3" d="M360.86,326.39c-.74-1.48-2.25-2.41-3.91-2.41h-55.98l-6.24,8.61v.14h53.53l-59.49,80.05-30.24-40.67,66.64-90.43c.98-1.33,1.13-3.09.38-4.56s-2.25-2.4-3.9-2.4h-137.73c-1.65,0-3.16.93-3.91,2.41s-.59,3.25.4,4.57l31.28,42.07h-62.86c-1.65,0-3.17.93-3.91,2.41-.74,1.48-.59,3.25.4,4.57l68.73,92.2c.83,1.11,2.12,1.76,3.5,1.76h.01c1.38,0,2.69-.66,3.51-1.78l32.03-43.46,32.16,43.25c.83,1.11,2.13,1.76,3.51,1.76s2.68-.65,3.51-1.76l68.18-91.74c.99-1.33,1.14-3.09.4-4.57ZM217.54,412.98l-60-80.49h60.65l29.46,39.62-30.11,40.86ZM253.07,364.76l-24.05-31.95h41.32l6.41-9.05h-54.16l-29.97-40.31h120.38l-59.92,81.31Z"/>
  <g>
    <path class="cls-2" d="M73.86,472.74v-15.76l-8.34,15.76h-4.62l-8.25-15.76v15.76h-5.42v-20.7h9.16l6.95,13.72,6.86-13.72h9.1v20.7h-5.44Z"/>
    <path class="cls-2" d="M89.14,472.74h-6.41l10.55-20.7h7.77l10.32,20.7h-6.35l-1.79-3.76h-12.22l-1.87,3.76ZM93.03,464.7h8.11l-4.05-8.19-4.05,8.19Z"/>
    <path class="cls-2" d="M120.19,466.5c0,.83.26,1.37.77,1.61.57.21,1.3.31,2.19.31h2.73l3.87-.12c1.06,0,1.75-.14,2.07-.43.32-.29.48-.74.48-1.35,0-.55-.18-1-.55-1.32-.37-.33-1.07-.49-2.11-.49h-.94l-9.47-.25c-1.76,0-3.02-.48-3.77-1.46-.72-1.02-1.08-2.53-1.08-4.53,0-1.7.23-3.02.68-3.96s1.29-1.6,2.52-1.97c.66-.19,1.39-.34,2.2-.45.8-.11,1.67-.17,2.59-.17l4-.09h4.03c.83,0,1.56.03,2.17.09.61.06,1.19.18,1.71.35.96.25,1.65.75,2.06,1.5s.67,1.44.79,2.05c.12.62.18,1.46.18,2.52h-5.64c0-.7-.19-1.2-.58-1.51-.39-.3-.93-.45-1.63-.45l-2.78-.03-4.39.15c-.55,0-1.03.12-1.46.37-.43.24-.64.65-.64,1.22,0,.77.24,1.29.71,1.56.23.11.51.19.84.26.33.06.71.1,1.15.1h8.25c2.46,0,4.23.42,5.3,1.27,1.12.81,1.67,2.48,1.67,5.03s-.5,4.12-1.49,5.03c-.99.91-2.63,1.37-4.92,1.37l-7.37.22-3.86-.09c-2.06,0-3.57-.36-4.52-1.08-.96-.72-1.43-2.17-1.43-4.35v-1.24h5.64l.03.34Z"/>
    <path class="cls-2" d="M148.07,466.5c0,.83.26,1.37.77,1.61.57.21,1.3.31,2.19.31h2.73l3.87-.12c1.06,0,1.75-.14,2.07-.43.32-.29.48-.74.48-1.35,0-.55-.18-1-.55-1.32-.37-.33-1.07-.49-2.11-.49h-.94l-9.47-.25c-1.76,0-3.02-.48-3.77-1.46-.72-1.02-1.08-2.53-1.08-4.53,0-1.7.23-3.02.68-3.96s1.29-1.6,2.52-1.97c.66-.19,1.39-.34,2.2-.45.8-.11,1.67-.17,2.59-.17l4-.09h4.03c.83,0,1.56.03,2.17.09.61.06,1.19.18,1.71.35.96.25,1.65.75,2.06,1.5s.67,1.44.79,2.05c.12.62.18,1.46.18,2.52h-5.64c0-.7-.19-1.2-.58-1.51-.39-.3-.93-.45-1.63-.45l-2.78-.03-4.39.15c-.55,0-1.03.12-1.46.37-.43.24-.64.65-.64,1.22,0,.77.24,1.29.71,1.56.23.11.51.19.84.26.33.06.71.1,1.15.1h8.25c2.46,0,4.23.42,5.3,1.27,1.12.81,1.67,2.48,1.67,5.03s-.5,4.12-1.49,5.03c-.99.91-2.63,1.37-4.92,1.37l-7.37.22-3.86-.09c-2.06,0-3.57-.36-4.52-1.08-.96-.72-1.43-2.17-1.43-4.35v-1.24h5.64l.03.34Z"/>
    <path class="cls-2" d="M191.62,452.04v4.72h-15.34v3.54h14.32v4.1h-14.32v3.66h15.34v4.68h-21.1v-20.7h21.1Z"/>
    <path class="cls-2" d="M221.2,452.04l-10.63,13.5v7.2h-5.78v-7.2l-10.8-13.5h7.26l6.41,8.53,6.35-8.53h7.2Z"/>
    <path class="cls-2" d="M254.99,452.04v4.72h-14.61v3.54h14.61v4.1h-14.61v8.35h-5.87v-20.71h20.49Z"/>
    <path class="cls-2" d="M280.08,452.04v4.72h-15.66v3.54h14.62v4.1h-14.62v3.66h15.66v4.69h-21.53v-20.71h21.53Z"/>
    <path class="cls-2" d="M302.39,452.04c2.33,0,3.98.49,4.95,1.46.5.48.88,1.13,1.13,1.96.25.83.37,1.88.37,3.14v.34c0,.87-.05,1.6-.14,2.18s-.29,1.11-.58,1.59-.63.85-1.01,1.12c-.27.17-1.08.5-2.43,1,1.31.18,2.3.55,2.95,1.1.66.55.98,1.5.98,2.86v3.96h-5.96v-1.98c0-.99-.08-1.78-.25-2.39-.16-.61-.93-.91-2.3-.91h-9.81v5.28h-5.88v-20.71h17.97ZM299.93,462.44c1.33,0,2.16-.18,2.49-.53.33-.36.49-1.15.49-2.39,0-.71-.06-1.22-.19-1.52-.12-.3-.39-.54-.79-.7l-.96-.22h-10.68v5.37h9.64Z"/>
    <path class="cls-2" d="M338.48,461.08l.03,4.36c0,2.57-.41,4.47-1.23,5.7s-2.42,1.84-4.79,1.84h-9.61c-2.2,0-3.95-.16-5.24-.46-1.29-.31-2.33-1.02-3.11-2.13-.78-1.11-1.17-2.79-1.17-5.05l-.06-2.61c0-4.04.46-6.84,1.39-8.4.93-1.55,3.11-2.33,6.54-2.33l4.4-.15h1.62l3.94.15c2.55,0,4.39.47,5.54,1.4,1.15.93,1.72,2.73,1.72,5.4v.37h-5.73c0-.48-.06-.9-.19-1.24-.13-.34-.35-.57-.67-.68-.32-.11-.71-.21-1.18-.29h-1.45l-6.82-.12c-1.39,0-2.27.37-2.64,1.11-.37.74-.55,1.97-.55,3.68v1.94c0,1.44.17,2.5.52,3.19.35.69.88,1.1,1.59,1.22l1.56.16h6.63c1,0,1.79-.18,2.34-.54.56-.36.84-1.03.84-2.03v-.6h-7.47v-3.88h13.22Z"/>
    <path class="cls-2" d="M367.88,463.87v1.21c0,3.21-.8,5.33-2.39,6.37-1.59,1.04-4.01,1.55-7.25,1.55h-4.8c-1.33,0-2.46-.03-3.39-.09-.93-.06-1.75-.17-2.46-.34-1.33-.27-2.42-1.01-3.25-2.21-.84-1.2-1.26-3.06-1.26-5.57v-12.72h5.87v10.88c0,2.04.23,3.38.69,4.02.46.64,1.63.97,3.5.97h5.07c1.6,0,2.63-.27,3.08-.81.45-.54.68-1.63.68-3.27v-11.78h5.9v11.8Z"/>
    <path class="cls-2" d="M378.45,466.51c0,.83.26,1.37.78,1.61.58.21,1.33.31,2.24.31h2.78l3.94-.12c1.08,0,1.79-.14,2.12-.43.33-.29.49-.74.49-1.35,0-.55-.19-1-.57-1.32s-1.1-.49-2.15-.49h-.96l-9.67-.25c-1.79,0-3.08-.49-3.85-1.46-.73-1.02-1.1-2.53-1.1-4.53,0-1.7.23-3.02.69-3.96.46-.94,1.32-1.6,2.57-1.97.68-.19,1.42-.34,2.24-.45.82-.11,1.7-.17,2.65-.17l4.08-.09h4.11c.85,0,1.59.03,2.22.09.63.06,1.21.18,1.75.35.98.25,1.68.75,2.1,1.5s.69,1.44.81,2.05.19,1.46.19,2.52h-5.76c0-.7-.2-1.21-.59-1.51-.4-.3-.95-.45-1.67-.45l-2.84-.03-4.49.15c-.56,0-1.06.12-1.49.37-.43.24-.65.65-.65,1.23,0,.77.24,1.29.72,1.56.23.11.52.19.85.26.34.06.73.1,1.17.1h8.42c2.51,0,4.31.42,5.41,1.27,1.14.81,1.71,2.48,1.71,5.03s-.51,4.12-1.52,5.03c-1.01.91-2.69,1.37-5.02,1.37l-7.52.22-3.94-.09c-2.1,0-3.64-.36-4.62-1.08-.98-.72-1.46-2.17-1.46-4.36v-1.24h5.76l.03.34Z"/>
    <path class="cls-2" d="M413.81,451.82l4.69.09c3.43,0,5.78.61,7.05,1.83,1.26,1.22,1.9,3.65,1.9,7.31v.99c0,4.29-.5,7.17-1.5,8.62s-3.54,2.18-7.61,2.18l-4.43.12h-1.85l-3.99-.12c-2.22,0-3.94-.54-5.16-1.63s-1.84-2.85-1.84-5.27l-.06-3.83c0-4.21.5-6.96,1.49-8.26.99-1.3,3.38-1.94,7.16-1.94l4.17-.09ZM410.63,467.91h6.16c1.64,0,2.83-.19,3.56-.56.73-.37,1.1-1.33,1.1-2.87l.06-2.81c0-.93-.05-1.75-.16-2.43-.11-.69-.32-1.19-.64-1.5-.32-.31-.8-.52-1.43-.63-.64-.1-1.1-.16-1.4-.17s-.53-.02-.71-.02h-5.85c-1.37,0-2.38.15-3.04.44-.69.27-1.1.9-1.22,1.89l-.15,2.36v1.41c0,1.91.2,3.2.61,3.88s1.44,1.02,3.1,1.02Z"/>
    <path class="cls-2" d="M449.21,472.75l-11.64-15.56v15.56h-5.53v-20.71h9.35l11.63,15.52v-15.52h5.53v20.71h-9.35Z"/>
  </g>
  <text class="cls-1" transform="translate(79.13 122.9)"><tspan x="0" y="0">MOTIN</tspan></text>
  <text class="cls-4" transform="translate(41.45 229.68) scale(1.11 1)"><tspan x="0" y="0">Normagri</tspan></text>
</svg>