<?xml version="1.0"?>
<svg width="473.3" height="218.53" xmlns="http://www.w3.org/2000/svg" xmlns:svg="http://www.w3.org/2000/svg" clip-rule="evenodd" fill-rule="evenodd">
 <g class="layer">
  <title>Layer 1</title>
  <g fill-rule="nonzero" id="svg_1">
   <path d="m234.85,126.75l-27.18,-36.1l46.68,0l7.24,-10.23l-61.19,0l-33.86,-45.54l136.01,0l-67.7,91.87zm-40.15,54.49l-67.79,-90.94l68.52,0l33.29,44.77l-34.02,46.17zm161.93,-97.84a4.94,4.94 0 0 0 -4.41,-2.72l-63.25,0l-7.05,9.72l0,0.16l60.48,0l-67.21,90.44l-34.17,-45.96l75.29,-102.17c1.1,-1.5 1.27,-3.5 0.43,-5.16s-2.54,-2.71 -4.41,-2.71l-155.61,0c-1.87,0 -3.57,1.05 -4.41,2.72s-0.66,3.67 0.45,5.17l35.35,47.53l-71.02,0a4.93,4.93 0 0 0 -3.96,7.89l77.65,104.17a4.94,4.94 0 0 0 3.96,1.99l0.01,0c1.56,0 3.03,-0.75 3.96,-2.01l36.19,-49.11l36.33,48.87c0.93,1.25 2.4,1.99 3.96,1.99s3.03,-0.74 3.96,-1.99l77.04,-103.66c1.11,-1.5 1.29,-3.5 0.45,-5.17l-0.01,0.01z" fill="#f00" id="svg_2"/>
  </g>
 </g>
</svg>