<?xml version="1.0" encoding="utf-8"?>
<!-- Generator: Adobe Illustrator 28.2.0, SVG Export Plug-In . SVG Version: 6.00 Build 0)  -->
<svg version="1.1" id="Calque_1" xmlns="http://www.w3.org/2000/svg" xmlns:xlink="http://www.w3.org/1999/xlink" x="0px" y="0px"
	 viewBox="0 0 500 500" style="enable-background:new 0 0 500 500;" xml:space="preserve">
<style type="text/css">
	.st0{fill:#064B2B;}
	.st1{fill:#55A026;}
</style>
<path class="st0" d="M307.3,191.6h-14.5c-9.9-18.8-26.9-21.8-46.2-20.9c-3.5,21.5-2.4,43-2.6,64.4c-0.2,21.3,0.8,42.6,3,64.3
	c-28.4,19.7-58.6,34.6-94.4,32.2c-32.7-2.2-51.5-25.4-42.4-61.2c6.4-25.2,21.5-45.2,40.1-62.7c25.5-24,54.7-41.2,89.6-47.5
	c12.9-2.3,25.9-2.4,38.6,1.7C293.1,166.4,303,175.8,307.3,191.6L307.3,191.6z M186.8,194c-2.1-0.8-3.1,0.4-4.1,1.1
	c-12.6,8.3-24,18-33.9,29.3c-12.9,14.7-23.4,30.8-26.7,50.6c-3.7,22.6,8,39.1,30.6,42.8c20.9,3.5,40.2-2.6,59.2-11v-34.5h-18.9
	c-1.4,3.8-2.7,7.5-4,10.9h-35C167,253.8,178.6,224.5,186.8,194L186.8,194z M213.4,205.3c-0.3-0.1-0.7-0.1-1-0.2
	c-4.4,13.4-8.8,26.8-13.3,40.4h14.4V205.3L213.4,205.3z"/>
<path class="st1" d="M324.5,197.1c16,0.2,31.3-1,46.6,0.8c10.1,1.1,14.4,7.1,13.9,17.2c-0.5,10.9-4.5,16.9-15.6,23
	c10.7,2,10.3,9.7,9.8,17.3c-0.6,9-1.2,17.9-0.4,27.2h-24.7c-3.8-11,2.1-22.5-1.1-33c-2.8-1.9-5.1-1.6-7.7-0.9
	c-2,11.2-2.9,22.4-3.6,33.9h-28.9C319,254.5,323.8,226.4,324.5,197.1L324.5,197.1z M347.5,230.3c4.4,0.7,8.1,1.1,10.4-2.8
	c2-3.4,2.9-7.4,0.8-10.9c-2-3.3-5.6-1.9-9-1.8C349,220,348.3,224.8,347.5,230.3L347.5,230.3z"/>
<path class="st1" d="M291.3,197h27.4c-10,28.1-19.4,56-25.3,85.2h-41.1c1.4-28.2,1.7-56.4-1.1-85H279c-0.6,17.6-1.1,35.3-1.7,53
	l1,0.2C282.6,232.7,287,214.9,291.3,197L291.3,197z"/>
</svg>
