<?xml version="1.0" encoding="UTF-8" standalone="no"?>
<svg
   xmlns:svg="http://www.w3.org/2000/svg"
   xmlns="http://www.w3.org/2000/svg"
   version="1.1"
   width="703.19806"
   height="145.4375"
   id="svg3872">
  <defs
     id="defs3874" />
  <g
     transform="translate(5.8847543,-405.34375)"
     id="layer1">
    <path
       d="m 592.82469,550.22358 -89.31272,-144.29411 36.9423,0 86.51156,144.29411 -34.14114,0 z"
       id="path146"
       style="fill:#fecc00;fill-opacity:1;fill-rule:nonzero;stroke:none" />
    <path
       d="m 592.8247,550.22352 -89.31272,-144.29411 36.9423,0 86.51156,144.29411 -34.14114,0 z"
       id="path158"
       style="fill:none;stroke:#000000;stroke-width:1.14527345;stroke-linecap:butt;stroke-linejoin:miter;stroke-miterlimit:4;stroke-opacity:1;stroke-dasharray:none" />
    <path
       d="m 539.66499,550.22358 -89.11633,-144.29411 37.06634,0 86.52809,144.29411 -34.4781,0 z"
       id="path162"
       style="fill:#009546;fill-opacity:1;fill-rule:nonzero;stroke:none" />
    <path
       d="m 539.665,550.22352 -89.11633,-144.29411 37.06634,0 86.52809,144.29411 -34.4781,0 z"
       id="path174"
       style="fill:none;stroke:#000000;stroke-width:1.14527345;stroke-linecap:butt;stroke-linejoin:miter;stroke-miterlimit:4;stroke-opacity:1;stroke-dasharray:none" />
    <path
       d="m 84.705545,515.04606 c -5.86901,6.89851 -15.235857,8.33941 -29.64687,8.33941 -19.147152,0 -31.397856,-0.61812 -40.458747,-8.64744 -13.79289529,-12.35406 -20.4846823,-22.64705 -20.4846823,-33.3535 0,-3.4999 0.6181169,-7.92595 1.6476226,-13.48693 l 30.9864677,0 13.073482,13.5903 4.734072,-25.42755 -10.807742,-10.80981 2.675061,-14.82447 58.987777,0 16.780124,16.88348 -2.57376,14.7211 -7.51457,0 c -4.940804,0 -5.354264,1.02951 -5.970304,4.52942 l -5.560989,31.50122 c -1.234167,7.10317 -2.263672,12.76545 -5.866942,16.98477"
       id="path186"
       style="fill:#000000;fill-opacity:1;fill-rule:nonzero;stroke:none" />
    <path
       d="m 37.351596,431.66209 -2.162376,12.35407 7.617929,0 c 2.881789,0 4.324751,1.1308 4.324751,3.39654 0,0.30803 0,0.61812 -0.103364,1.23624 l -5.147529,28.00131 c -1.750986,9.36685 -2.059011,16.47002 -10.603081,16.47002 -5.147529,0 -8.029318,-2.57376 -8.029318,-7.51456 0,-0.92614 0.103364,-1.85435 0.308025,-2.67713 l 2.780492,-14.10505 -29.6489369,0 c -1.0295057,4.94286 -1.5421913,8.95752 -1.5421913,12.1494 0,8.64744 3.6012026,15.75061 9.6748729,19.86657 6.2803983,4.32475 16.9868443,4.94286 33.8682563,4.94286 12.560797,0 21.001503,-1.23623 26.870512,-6.48712 4.630709,-4.21932 5.968239,-9.98496 7.307837,-17.91092 l 5.763578,-32.84081 c 0.51682,-3.08645 2.164442,-4.52735 5.972373,-4.52735 l 7.514565,0 2.162375,-12.35407 -56.92877,0 z"
       id="path190"
       style="fill:#ffffff;fill-opacity:1;fill-rule:nonzero;stroke:none" />
    <path
       d="m 83.058755,440.41206 c -5.662281,0 -8.029318,1.23624 -8.955459,6.48506 l -6.280398,35.92934 c -2.573765,14.61774 -8.95546,19.04378 -30.883104,19.04378 -14.309716,0 -23.676563,-0.92614 -29.0308203,-4.42604 -5.5589172,-3.60327 -8.23397819,-8.54614 -8.23397819,-15.0312 0,-2.16031 0.3080248,-5.45555 0.8227777,-9.98496 l 19.86863279,0 -1.750986,11.83931 c -0.101297,0.82278 -0.204661,1.74892 -0.204661,2.5717 0,6.2804 4.219319,9.98703 11.735951,9.98703 11.837249,0 14.204285,-5.76564 16.36666,-18.22101 l 5.250893,-30.57508 c 0.103364,-0.61812 0.20466,-1.23623 0.20466,-1.85228 0,-3.70664 -2.367036,-5.76565 -6.896447,-5.76565 l -4.529412,0 0.926142,-5.14753 47.355194,0 -0.822778,5.14753 -4.942867,0 z"
       id="path194"
       style="fill:#000000;fill-opacity:1;fill-rule:nonzero;stroke:none" />
    <path
       d="m 167.26571,480.04576 c -1.3396,7.51457 -3.19188,11.2212 -10.19169,12.6621 l 3.29524,-18.83913 c 1.23417,-6.79309 4.01259,-10.08833 9.98497,-10.91111 l -3.08852,17.08814 z m 46.83837,-23.36854 -16.88141,-16.88141 c -8.03138,-8.03138 -19.35388,-10.09039 -36.34072,-10.09039 -17.6029,0 -29.95697,2.4704 -38.29431,9.98703 -3.70663,3.29318 -6.58842,7.82259 -8.23604,13.27814 -0.72148,2.16238 -1.64556,6.48713 -2.67713,12.76546 -1.02951,6.38376 -1.4409,10.91317 -1.4409,13.5903 0,7.61586 2.26574,13.58617 7.00188,18.32231 l 16.77805,16.78011 c 8.02932,8.02932 19.972,9.7803 37.67826,9.7803 18.6324,0 31.08983,-3.08852 39.01578,-12.04397 3.08852,-3.49991 5.45555,-8.03138 6.48713,-12.86882 2.88179,-13.17685 3.70456,-21.82428 3.70456,-24.9128 0,-7.20447 -2.36703,-13.28021 -6.79515,-17.70626"
       id="path198"
       style="fill:#000000;fill-opacity:1;fill-rule:nonzero;stroke:none" />
    <path
       d="m 167.26571,480.04576 c -1.3396,7.51457 -3.19188,11.2212 -10.19169,12.6621 l 3.29524,-18.83913 c 1.23417,-6.79309 4.01259,-10.08833 9.98497,-10.91111 l -3.08852,17.08814 z m -5.97031,-49.10411 c -17.60496,0 -29.7523,2.16031 -37.98628,9.7803 -3.50197,3.29318 -6.07367,7.51457 -7.61999,12.45537 -0.61605,2.16237 -1.64556,6.48506 -2.67506,12.86882 -1.02951,6.69179 -1.4409,11.11783 -1.4409,13.28021 0,18.01428 13.48487,26.96974 40.35332,26.96974 18.32437,0 30.77974,-2.05901 39.22251,-9.8816 3.49991,-3.19188 6.17703,-7.41327 7.72129,-12.45743 0.61605,-2.16238 1.54219,-6.3817 2.5717,-12.76339 1.02951,-6.58843 1.44296,-11.1199 1.44296,-13.28228 0,-18.63033 -13.69366,-26.96974 -41.58955,-26.96974"
       id="path202"
       style="fill:#ffffff;fill-opacity:1;fill-rule:nonzero;stroke:none" />
    <path
       d="m 167.26571,480.04576 c -1.3396,7.51457 -3.19188,11.2212 -10.19169,12.6621 l 3.29524,-18.83913 c 1.23417,-6.79309 4.01259,-10.08833 9.98497,-10.91111 l -3.08852,17.08814 z m -7.92595,-45.70757 c -16.16407,0 -26.97181,2.67713 -34.07499,10.70645 -2.78049,3.19188 -4.8395,7.20654 -5.76564,11.52922 -2.57377,11.42793 -3.19189,19.14922 -3.19189,22.23567 0,15.75061 12.14941,23.98665 36.134,23.98665 17.80962,0 29.75023,-2.77842 36.75005,-11.01447 3.80999,-4.42604 5.35425,-9.88366 6.69178,-16.57545 1.64763,-8.13062 2.26574,-13.7929 2.26574,-16.67675 0,-17.70626 -12.55873,-24.19132 -38.80905,-24.19132"
       id="path206"
       style="fill:#000000;fill-opacity:1;fill-rule:nonzero;stroke:none" />
    <path
       d="m 167.26571,480.04576 c -1.3396,7.51457 -3.19188,11.2212 -10.19169,12.6621 l 3.29524,-18.83913 c 1.23417,-6.79309 4.01259,-10.08833 9.98497,-10.91111 l -3.08852,17.08814 z m -6.2804,-40.14865 c -12.66209,0 -17.29487,5.25089 -19.45518,16.67675 l -4.52941,24.60477 c -0.31009,1.75099 -0.41345,3.18982 -0.41345,4.21932 0,8.13475 5.55891,11.94268 17.1915,11.94268 12.66209,0 16.98684,-5.14753 19.14922,-16.67675 l 4.52941,-24.60477 c 0.41139,-1.95565 0.51475,-3.49991 0.51475,-4.42605 0,-7.51456 -5.76564,-11.73595 -16.98684,-11.73595"
       id="path210"
       style="fill:#ffffff;fill-opacity:1;fill-rule:nonzero;stroke:none" />
    <path
       d="m 167.26571,480.04576 c -1.3396,7.51457 -3.19188,11.2212 -10.19169,12.6621 l 3.29524,-18.83913 c 1.23417,-6.79309 4.01259,-10.08833 9.98497,-10.91111 l -3.08852,17.08814 z m -6.58842,-36.75211 c -9.98704,0 -12.86883,4.11802 -14.61774,13.89833 l -4.11803,23.26517 c -0.31009,1.85228 -0.51475,3.39861 -0.51475,4.42812 0,6.0716 4.11802,8.95546 12.352,8.95546 9.98703,0 12.86882,-4.01466 14.61981,-13.79497 l 4.11595,-23.36854 c 0.3101,-1.85228 0.51476,-3.29524 0.51476,-4.32268 0,-6.07367 -4.11803,-9.06089 -12.352,-9.06089"
       id="path214"
       style="fill:#000000;fill-opacity:1;fill-rule:nonzero;stroke:none" />
    <path
       d="m 330.41445,475.20708 -20.38339,0 13.59031,12.76546 c 0.51475,0.51475 2.77842,5.35219 2.77842,11.2212 0,16.57338 -13.48487,23.88329 -40.7647,23.88329 -12.86883,0 -21.61756,-0.72149 -26.86845,-4.01466 l -0.41139,3.29317 -20.07536,0 -16.57339,-16.47209 5.04417,-29.64686 23.16181,0 c -13.07348,-4.83744 -19.04379,-11.42586 -19.04379,-22.13231 0,-16.26536 13.89626,-24.19131 41.69085,-24.19131 6.79515,0 12.97218,0.51268 18.83912,2.26367 l 0,-1.95565 25.94231,0 17.60496,17.49953 -4.53148,27.48656 z"
       id="path218"
       style="fill:#000000;fill-opacity:1;fill-rule:nonzero;stroke:none" />
    <path
       d="m 266.07427,506.29691 c 13.07348,0 22.95715,-0.61812 29.8536,-3.91129 8.64743,-4.11802 13.07348,-10.70645 13.07348,-19.45725 0,-12.04397 -6.48506,-17.70625 -19.76527,-21.72091 -17.80755,-5.45556 -26.45706,-6.38376 -26.45706,-11.73595 0,-3.9113 3.91337,-6.27833 11.63259,-6.27833 11.01654,0 15.44259,4.21932 15.44259,14.20428 l 0,1.3396 22.23567,0 4.52941,-27.3832 -23.36854,0 -0.51475,3.08852 c -2.98516,-1.95565 -10.60102,-3.49991 -22.13024,-3.49991 -25.84101,0 -38.70776,8.44071 -38.70776,22.95715 0,12.24864 7.61586,17.60289 22.2336,22.44033 13.48694,4.42605 21.31159,6.07367 21.31159,11.01654 0,4.21932 -4.11802,5.45348 -12.04604,5.45348 -10.60101,0 -16.05863,-4.42604 -16.05863,-12.97011 0,-0.71942 0,-1.64763 0.10336,-2.4704 l -19.86863,0 -5.04417,28.4127 18.5311,0 0.41139,-3.29525 c 5.76358,3.49991 13.6916,3.81 24.60271,3.81"
       id="path222"
       style="fill:#ffffff;fill-opacity:1;fill-rule:nonzero;stroke:none" />
    <path
       d="m 238.2799,502.17848 -10.91317,0 3.91129,-21.51419 12.97218,0 c 0,10.29299 6.38377,15.1325 19.56061,15.1325 10.49972,0 15.64725,-2.67713 15.64725,-8.85416 0,-8.23605 -10.19169,-8.7508 -25.11953,-14.10299 -12.45536,-4.42605 -18.32437,-9.67694 -18.32437,-18.6324 0,-13.17685 11.53129,-20.07536 34.58974,-20.07536 9.88366,0 17.91298,1.3396 24.80943,4.73614 l 0.92821,-4.42605 14.71904,0 -3.49991,20.79271 -14.41308,0 c -0.1013,-9.67488 -6.38169,-14.92577 -18.63033,-14.92577 -9.88367,0 -15.13249,3.39861 -15.13249,9.26555 0,6.79309 7.4112,8.13268 19.86656,11.83932 16.26536,4.83744 25.63428,9.05882 25.63428,21.20616 0,13.38151 -11.63466,20.0733 -34.89983,20.0733 -12.55873,0 -22.44033,-0.1013 -31.08776,-4.9408 l -0.61812,4.42604 z"
       id="path226"
       style="fill:#000000;fill-opacity:1;fill-rule:nonzero;stroke:none" />
    <path
       d="m 476.83083,447.76517 -2.57377,14.72111 c -1.13287,-0.10337 -1.85228,-0.10337 -2.05901,-0.10337 -4.32268,0 -8.85209,1.64763 -13.6916,4.63278 l -26.25032,16.162 c 5.45555,5.35219 6.99981,8.33941 12.97218,8.33941 l 5.0421,0 22.23774,17.70625 -2.57377,14.7211 -120.23923,0 -16.78012,-16.78011 2.57376,-14.82447 7.51457,0 c 4.9408,0 5.35425,-1.0295 5.9703,-4.52941 l 5.55892,-31.29449 -10.80774,-10.80981 2.57376,-14.82447 113.75211,0 16.78012,16.88348 z"
       id="path230"
       style="fill:#000000;fill-opacity:1;fill-rule:nonzero;stroke:none" />
    <path
       d="m 564.6239,447.76517 -2.67713,14.72111 -7.40913,0 c -4.94287,0 -5.45762,1.0295 -6.07574,4.52941 l -5.45555,31.29449 10.80981,10.91317 -2.67713,14.7211 -58.98778,0 -16.78012,-16.78011 2.57376,-14.82447 7.51457,0 c 4.94287,0 5.35426,-1.0295 5.97031,-4.52941 l 5.56098,-31.29449 -10.80981,-10.80981 2.57376,-14.82447 58.98572,0 16.88348,16.88348 z"
       id="path242"
       style="fill:#000000;fill-opacity:1;fill-rule:nonzero;stroke:none" />
    <path
       d="m 697.31333,447.76517 -2.57377,14.72111 -7.51249,0 c -4.93874,0 -5.35219,1.0295 -5.97031,4.52941 l -10.18962,57.34015 -30.57715,0 -9.98703,-10.29505 -1.74892,10.29505 -54.86769,0 -16.78012,-17.1915 2.57376,-14.82447 7.5125,0 c 4.94494,0 5.35839,-1.0295 5.97031,-4.52941 l 5.55892,-31.29449 -10.80775,-10.80981 2.57377,-14.82447 45.60214,0 8.24018,8.44071 1.54219,-8.44071 54.66303,0 16.77805,16.88348 z"
       id="path246"
       style="fill:#000000;fill-opacity:1;fill-rule:nonzero;stroke:none" />
    <path
       d="m 347.3277,432.11772 -2.26574,12.352 7.72129,0 c 2.88386,0 4.32475,1.13287 4.32475,3.39861 0,0.30803 0,0.61812 -0.10336,1.23417 l -7.10318,39.94193 c -0.51475,3.09058 -2.16237,4.53147 -5.9703,4.53147 l -7.51663,0 -2.16031,12.352 56.92877,0 2.16031,-12.352 -8.13269,0 c -2.77842,0 -4.32268,-1.13286 -4.32268,-3.19188 0,-0.41139 0,-0.82277 0.1013,-1.44089 l 2.05901,-12.76546 16.88348,16.26537 c 0.20466,0.20672 0.31009,0.41138 0.31009,0.61811 0,0.61605 -0.41346,0.71942 -1.54633,0.71942 l -3.39654,-0.20467 -2.26367,12.352 54.66303,0 2.16238,-13.3815 -6.69179,0 c -2.78049,0 -5.14753,-1.85435 -7.82466,-4.52941 l -22.33903,-22.33904 27.07517,-16.67881 c 4.52941,-2.77843 8.8521,-4.63071 13.89626,-4.63071 0.10337,0 0.41346,0.10129 0.92821,0.10129 l 1.74892,0 2.16238,-12.352 -52.60402,0 -2.16238,12.352 3.08852,0 c 1.23416,0 1.85228,0.2088 1.85228,0.82485 0,0.41139 -0.82278,0.71941 -2.36703,1.44089 l -19.56061,9.88367 1.44296,-7.61999 c 0.61605,-3.08645 2.16237,-4.52942 6.07367,-4.52942 l 7.4112,0 2.16031,-12.352 -56.82334,0 z"
       id="path258"
       style="fill:#ffffff;fill-opacity:1;fill-rule:nonzero;stroke:none" />
    <path
       d="m 489.784,432.11772 -2.26574,12.352 7.72129,0 c 2.88179,0 4.32475,1.13287 4.32475,3.39861 0,0.30803 0,0.61812 -0.10336,1.23417 l -7.10318,39.94193 c -0.51682,3.09058 -2.16237,4.53147 -5.9703,4.53147 l -7.51663,0 -2.16031,12.352 56.92877,0 2.16031,-12.352 -7.61793,0 c -2.88179,0 -4.32269,-1.13286 -4.32269,-3.3986 0,-0.30803 0,-0.61605 0.10337,-1.23417 l 6.99981,-39.94399 c 0.51268,-3.08645 2.26367,-4.52942 6.07367,-4.52942 l 7.4112,0 2.16238,-12.352 -56.82541,0 z"
       id="path262"
       style="fill:#ffffff;fill-opacity:1;fill-rule:nonzero;stroke:none" />
    <path
       d="m 393.03486,440.86811 c -5.66228,0 -8.13268,1.23417 -9.05882,6.48506 l -3.08852,17.19151 27.27983,-14.51438 c 4.63278,-2.4704 6.79309,-4.8395 6.79309,-6.2804 0,-1.85228 -1.23417,-2.88179 -3.39655,-2.88179 l -3.70456,0 0.92407,-5.14753 46.01767,0 -0.92615,5.2509 -1.13287,0 c -5.55891,0 -9.7803,2.16237 -14.41308,4.9408 l -31.9126,19.55854 26.35575,26.35369 c 3.39448,3.39654 6.3817,5.35426 9.26349,5.35426 l 3.39654,0 -0.92614,5.25089 -47.55986,0 1.02951,-5.25089 2.67713,0 c 3.80793,0 5.55891,-0.3101 5.55891,-2.16238 0,-1.64762 -1.0295,-2.26574 -2.57376,-3.80793 l -23.26517,-23.57527 -3.80793,21.92765 c -0.10544,0.71941 -0.2088,1.33753 -0.2088,1.85228 0,3.80793 2.3691,5.76565 6.89851,5.76565 l 4.83951,0 -0.92821,5.25089 -47.55986,0 1.02951,-5.25089 4.73614,0 c 5.76358,0 8.02932,-1.23417 8.95546,-6.48506 l 7.4112,-42.20767 c 0.10336,-0.61812 0.20673,-1.23623 0.20673,-1.85228 0,-3.70664 -2.36704,-5.76565 -6.89645,-5.76565 l -4.63278,0 0.92615,-5.14753 47.45649,0 -0.92614,5.14753 -4.83744,0 z"
       id="path266"
       style="fill:#000000;fill-opacity:1;fill-rule:nonzero;stroke:none" />
    <path
       d="m 535.49157,440.86811 c -5.66435,0 -8.13268,1.23417 -9.05882,6.48506 l -7.41327,42.20767 c -0.10337,0.61605 -0.20466,1.23416 -0.20466,1.85228 0,3.70664 2.36703,5.76565 6.89644,5.76565 l 4.83744,0 -0.92614,5.25089 -47.55986,0 1.02951,-5.25089 4.73614,0 c 5.76358,0 8.02932,-1.23417 8.95546,-6.48506 l 7.4112,-42.20767 c 0.10336,-0.61812 0.20673,-1.23623 0.20673,-1.85228 0,-3.70664 -2.36704,-5.76565 -6.89852,-5.76565 l -4.63071,0 0.92615,-5.14753 47.45649,0 -0.92614,5.14753 -4.83744,0 z"
       id="path270"
       style="fill:#000000;fill-opacity:1;fill-rule:nonzero;stroke:none" />
    <path
       d="m 615.68324,432.11772 -44.16538,0 -2.26161,12.352 7.71716,0 c 2.88386,0 4.32062,1.13287 4.32062,3.39861 0,0.30803 0,0.61812 -0.0972,1.23417 l -7.10525,39.94193 c -0.51475,3.09058 -2.16031,4.53147 -5.9703,4.53147 l -7.51457,0 -2.16237,12.352 52.19056,0 1.85642,-12.352 -6.17704,0 c -3.81206,0 -5.76564,-0.20672 -5.76564,-3.08851 0,-1.02951 0.31009,-2.67713 0.72355,-4.94287 l 2.05694,-12.55873 19.45311,32.94211 31.08776,0 9.78238,-56.92876 c 0.51682,-3.08645 2.1603,-4.52942 5.9703,-4.52942 l 7.51457,0 2.16444,-12.352 -52.296,0 -2.06314,12.6621 5.46175,0 c 4.52735,0 6.89438,1.95564 6.89438,5.76357 0,0.51682 -0.10336,1.13287 -0.20672,1.85435 l -1.95358,12.35201 -19.45518,-32.63203 z"
       id="path274"
       style="fill:#ffffff;fill-opacity:1;fill-rule:nonzero;stroke:none" />
    <path
       d="m 641.62493,448.48562 c 0.10336,-0.61811 0.10336,-1.23416 0.10336,-1.85228 0,-3.91336 -2.16651,-5.76565 -6.69385,-5.76565 l -4.62864,0 0.922,-5.14752 42.62319,0 -0.82691,5.14752 -4.94493,0 c -5.66022,0 -8.02725,1.23624 -8.94926,6.48506 l -9.67901,55.07649 -22.95715,0 -25.42548,-42.1043 -5.35219,29.23548 c -0.10957,0.72148 -0.21293,1.44089 -0.21293,2.05901 0,3.60327 2.26987,5.55892 6.79722,5.55892 l 4.94493,0 -0.92821,5.25089 -42.61905,0 1.02951,-5.25089 4.7382,0 c 5.76358,0 8.02725,-1.23417 8.94926,-6.48506 l 7.41533,-42.20767 c 0.10337,-0.61811 0.20673,-1.23416 0.20673,-1.85228 0,-3.70663 -2.36703,-5.76565 -6.89851,-5.76565 l -4.63071,0 0.92821,-5.14752 36.33659,0 25.63221,42.20766 4.12009,-29.44221 z"
       id="path278"
       style="fill:#000000;fill-opacity:1;fill-rule:nonzero;stroke:none" />
  </g>
</svg>
