<?xml version="1.0" encoding="utf-8"?>
<!-- Generator: Adobe Illustrator 28.2.0, SVG Export Plug-In . SVG Version: 6.00 Build 0)  -->
<svg version="1.1" id="Calque_1" xmlns="http://www.w3.org/2000/svg" xmlns:xlink="http://www.w3.org/1999/xlink" x="0px" y="0px"
	 viewBox="0 0 2500 2500" style="enable-background:new 0 0 2500 2500;" xml:space="preserve">
<style type="text/css">
	.st0{fill-rule:evenodd;clip-rule:evenodd;fill:#C7232F;}
	.st1{fill-rule:evenodd;clip-rule:evenodd;fill:#5A9654;}
</style>
<g>
	<path class="st0" d="M835.5,1067.6H904c0,0-57.5,68.5-64.1,75.2c4.4,11.1,24.3,53.1,31,68.5c8.8,15.5,33.2,75.2,55.3,90.7H862
		c0,0-22.1-4.4-35.4-31c-13.3-28.7-33.2-64.1-35.4-75.2c-4.4,4.4-17.7,19.9-17.7,22.1v59.7c0,0,2.2,13.2,15.5,24.3h-92.9
		c0,0,13.3-11.1,13.3-26.5v-176.9c0,0-2.2-26.5-13.3-31h90.6c0,0-13.3,4.4-13.3,26.5v73l2.2-2.2c2.2-2.2,53.1-61.9,57.5-70.8
		C839.9,1083.1,842.1,1074.2,835.5,1067.6z"/>
	<path class="st0" d="M866.4,1140.6h81.8c0,0,33.2,77.4,37.6,88.4c8.8-19.9,13.3-28.7,15.5-35.4c4.4-6.6,11.1-19.9,13.3-22.1
		c0-4.4,2.2-8.8,2.2-15.5s-4.4-15.5-6.6-15.5h57.5c0,0-77.4,161.4-79.6,161.4c0,2.2-13.3,8.8-26.5-2.2
		c-13.3-11.1-17.7-17.7-22.1-26.5c-6.6-11.1-48.6-99.5-50.8-103.9C886.3,1162.7,875.3,1147.2,866.4,1140.6z M1153.8,1193.6h13.3
		c-2.2,2.2,0-31-26.5-31c-26.5,0-26.5,31-26.5,31h44.2v30.9H1114c0,22.1,15.5,46.4,48.6,46.4c30.9,0,59.7-24.3,59.7-24.3
		s-11.1,39.8-13.3,42c0,4.4-33.2,17.7-68.5,15.5c-95.1-4.4-88.4-81.8-88.4-81.8s-2.2-88.4,88.4-88.4c88.4,0,81.8,90.6,81.8,90.6
		h-68.5L1153.8,1193.6L1153.8,1193.6z M1653.5,1193.6h13.2c-2.2,2.2,0-31-26.5-31s-26.5,31-26.5,31h44.2v30.9h-44.2
		c0,22.1,15.5,46.4,48.6,46.4c31,0,59.7-24.3,59.7-24.3s-11.1,39.8-11.1,42c-2.2,4.4-35.4,17.7-68.5,15.5
		c-97.3-4.4-90.6-81.8-90.6-81.8s-2.2-88.4,88.4-88.4c88.4,0,81.8,90.6,81.8,90.6h-68.5L1653.5,1193.6L1653.5,1193.6z M1315.2,1302
		H1229c0,0,11.1-8.9,11.1-19.9v-117.2c0,0-2.2-15.5-13.3-22.1h73v17.7c0,0,15.5-26.5,48.6-24.3v46.4c0,0-19.9-6.6-35.4,4.4
		c-11.1,6.6-11.1,19.9-11.1,24.3v70.8C1302,1282.1,1302,1293.1,1315.2,1302z M1352.8,1302h88.4c0,0-13.3-11.1-13.3-22.1v-75.2
		c0,0-2.2-28.7,22.1-28.7c24.3,0,22.1,26.5,22.1,26.5v77.4c0,0,0,13.2-13.3,22.1h88.4c0,0-13.2-8.9-13.2-22.1v-84
		c0,0,4.4-59.7-61.9-59.7c-22.1,0-44.2,13.3-48.6,22.1v-17.7h-70.8c0,0,13.3,11.1,13.3,24.3v115
		C1366.1,1279.8,1363.8,1293.1,1352.8,1302L1352.8,1302z M1803.8,1204.7v75.2c0,11.1,13.2,22.1,13.2,22.1h-88.4
		c11.1-8.9,13.3-22.1,13.3-22.1v-190.1c0,0-4.4-19.9-15.5-24.3h77.4V1204.7L1803.8,1204.7z M1841.4,1184.8l15.5-42
		c0,0,26.5-8.8,53.1-6.6c28.8,0,48.6,8.8,57.5,19.9c8.8,13.3,11.1,28.7,11.1,39.8v57.5c0,0-2.2,19.9,22.1,22.1
		c-8.8,17.7-13.2,26.5-13.2,26.5s-37.6,6.6-53.1-11.1c-17.7-15.5-17.7-31-17.7-66.3c-8.8,2.2-37.6,8.8-35.4,31
		c2.2,19.9,26.5,19.9,31,19.9c-8.8,22.1-11.1,24.3-11.1,24.3s-73,24.3-81.8-42c-6.6-46.4,70.7-55.3,64.1-55.3
		c13.2-2.2,33.2-8.8,33.2-17.7C1914.4,1175.9,1903.3,1153.8,1841.4,1184.8L1841.4,1184.8z"/>
	<path class="st0" d="M2000.6,1302h86.2c0,0-13.3-11.1-13.3-22.1v-75.2c0,0-2.2-28.7,22.1-28.7s22.1,26.5,22.1,26.5v75.2
		c0,0,0,15.4-13.3,24.3h88.4c0,0-13.2-11.1-13.2-22.1v-84c0,0,4.4-59.7-61.9-59.7c-22.1,0-44.2,13.3-46.4,22.1v-17.7h-70.8
		c0,0,11.1,11.1,11.1,24.3v115C2011.7,1279.8,2011.7,1293.1,2000.6,1302L2000.6,1302z M2305.7,1277.7l-13.2,26.5
		c0,0-48.6,11.1-79.6-31s-11.1-101.7,11.1-117.2c22.1-15.5,33.2-19.9,53.1-19.9c19.9,0,35.4,8.8,37.6,11.1v-55.3
		c0,0-4.4-22.1-15.5-26.5h75.2v212.3c0,0,2.2,17.7,15.5,24.3h-75.2V1198c0,0,0-26.5-22.1-26.5c-24.3,0-31,28.7-31,48.6
		C2261.5,1237.8,2265.9,1271,2305.7,1277.7L2305.7,1277.7z"/>
	<path class="st1" d="M344.6,1067.6c0,0,48.6-55.3,68.5-66.3c15.5-8.8,28.7-6.6,39.8-8.8h168l-73,75.2H344.6z"/>
	<path class="st1" d="M545.8,1275.4c0,0,55.3-55.3,68.5-75.2c8.8-13.3,6.6-28.7,6.6-37.6V992.4l-75.2,73V1275.4z M397.7,1094.1
		h103.9L293.8,1302H110.3c0,0,55.3-61.9,73-68.5c17.7-4.4,26.5-4.4,79.6-4.4C293.8,1195.8,397.7,1094.1,397.7,1094.1L397.7,1094.1z
		 M521.5,1215.7v-106.1l-207.8,207.8v190.1c0,0,59.7-57.5,66.3-75.2c6.6-17.7,6.6-28.8,4.4-79.6
		C417.6,1321.9,521.5,1215.7,521.5,1215.7z"/>
</g>
</svg>
