<?xml version="1.0" encoding="utf-8"?>
<!-- Generator: Adobe Illustrator 19.0.0, SVG Export Plug-In . SVG Version: 6.00 Build 0)  -->
<svg version="1.1" id="layer" xmlns="http://www.w3.org/2000/svg" xmlns:xlink="http://www.w3.org/1999/xlink" x="0px" y="0px"
	 viewBox="-153 -46 652 652" style="enable-background:new -153 -46 652 652;" xml:space="preserve">
<style type="text/css">
	.st0{fill:#525D5A;}
	.st1{clip-path:url(#SVGID_2_);fill:url(#SVGID_3_);}
	.st2{clip-path:url(#SVGID_5_);fill:url(#SVGID_6_);}
	.st3{clip-path:url(#SVGID_8_);fill:url(#SVGID_9_);}
	.st4{clip-path:url(#SVGID_11_);fill:url(#SVGID_12_);}
	.st5{fill:#2A302F;}
	.st6{fill:#D1050C;}
</style>
<g>
	<path class="st0" d="M164,277c0,0.3-0.2,0.5-0.5,0.5h-11.9c-0.3,0-0.5-0.2-0.5-0.5v-36.1c0-0.3,0.2-0.5,0.5-0.5h11.9
		c0.3,0,0.5,0.2,0.5,0.5V277z"/>
	<path class="st0" d="M193.7,241c-3.4-0.7-11.3-0.6-11.6-0.6h-11c-0.3,0-0.5,0.2-0.5,0.5V277c0,0.3,0.2,0.5,0.5,0.5
		c8.7,0,2.4,0,11,0c4.8,0,9.6,0,10.8-0.1c8.7-0.9,13.8-7.7,13.8-17.7C206.7,249.8,202.9,243,193.7,241 M185.4,268.7
		c-0.4,0-1.7,0-2.4,0c-0.3,0-0.4,0-0.4-0.3c0-5.4,0-13.7,0-19.1c0-0.1,0.2-0.1,0.5-0.1c0.8,0,2.1,0,3,0c4.6,0,9.4,2.4,9.4,9.9
		C195.5,266.3,191.9,268.7,185.4,268.7"/>
	<path class="st0" d="M339.1,276.8c-5.1-12-11.1-24.1-16.3-36.1c-0.1-0.2-0.2-0.3-0.5-0.3c0,0-0.1,0-0.1,0h-13.3
		c-0.2,0-0.4,0.1-0.5,0.3c-5.1,12-11.1,24.1-16.3,36.1c-0.1,0.3,0.1,0.7,0.5,0.7h11c0.2,0,0.4-0.1,0.5-0.3c0.7-1.8,1.5-3.6,2.2-5.4
		c0.1-0.2,0.2-0.3,0.5-0.3h17.6c0.2,0,0.4,0.1,0.5,0.3c0.7,1.8,1.5,3.6,2.2,5.4c0.1,0.2,0.2,0.3,0.5,0.3h11
		C339,277.5,339.2,277.2,339.1,276.8 M320.3,263.1H311c-0.4,0-0.6-0.4-0.5-0.7c1.6-3.4,3.2-6.9,4.8-10.3c0.1-0.2,0.1-0.3,0.3-0.3
		c0.3,0,0.3,0.1,0.4,0.3c1.6,3.4,3.2,6.9,4.8,10.3C320.9,262.7,320.6,263.1,320.3,263.1"/>
	<path class="st0" d="M397.5,240.4h-9.7c-0.3,0-0.5,0.2-0.5,0.5V277c0,0.3,0.2,0.5,0.5,0.5h11c0.3,0,0.5-0.2,0.5-0.5
		c-0.1-5.7-0.2-11.5-0.3-17.2c0-0.5,0.6-0.7,0.9-0.3c5.5,6,11,11.9,16.5,17.9c0.1,0.1,0.2,0.2,0.4,0.2h9.7c0.3,0,0.5-0.2,0.5-0.5
		v-36.1c0-0.3-0.2-0.5-0.5-0.5h-10.9c-0.3,0-0.5,0.2-0.5,0.5c0.1,5.7,0.1,11.5,0.2,17.2c0,0.5-0.6,0.7-0.9,0.3
		c-5.5-6-11-11.9-16.5-17.9C397.8,240.5,397.7,240.4,397.5,240.4"/>
	<path class="st0" d="M289.3,240.9c0-0.3-0.2-0.5-0.5-0.5h-10.1c-0.5,0-0.4,0-1.4,1.4c-0.4,0.5-6.1,8.4-9.7,13.2
		c-0.2,0.3-0.3,0.4-0.6,0c-4.1-5.5-9.2-12.8-9.6-13.3c-0.9-1.2-0.9-1.4-1.2-1.4h-10.2c-0.3,0-0.5,0.2-0.5,0.5V277
		c0,0.3,0.2,0.5,0.5,0.5c8.7,0,2.4,0,11.1,0c0.3,0,0.5-0.2,0.5-0.5c0,0,0-13.5,0-18.7c0-0.3,0.3-0.3,0.5-0.1c0.6,0.9,8,11,8.8,12.1
		c0.4,0.5,0.7,0.5,1,0c0.9-1.2,7.8-10.6,8.9-12.1c0.2-0.3,0.5-0.1,0.5,0.3c0,0.5,0,18.5,0,18.5c0,0.3,0.2,0.5,0.5,0.5
		c1.5,0,8.2,0,11.1,0c0.3,0,0.5-0.2,0.5-0.5C289.4,274.6,289.3,243.4,289.3,240.9"/>
	<path class="st0" d="M211,277v-36.1c0-0.3,0.2-0.5,0.5-0.5h27.9c0.3,0,0.5,0.2,0.5,0.5v7.3c0,0.3-0.2,0.5-0.5,0.5h-15.6
		c-0.3,0-0.5,0.2-0.5,0.5v5.6c0,0.3,0.2,0.5,0.5,0.5h14c0.3,0,0.5,0.2,0.5,0.5v6.8c0,0.3-0.2,0.5-0.5,0.5h-14
		c-0.3,0-0.5,0.2-0.5,0.5v5.1c0,0.3,0.2,0.5,0.5,0.5h15.8c0.3,0,0.5,0.2,0.5,0.5v7.3c0,0.3-0.2,0.5-0.5,0.5h-28.1
		C211.2,277.5,211,277.3,211,277"/>
	<path class="st0" d="M352.1,240.4h-9.7c-0.3,0-0.5,0.2-0.5,0.5V277c0,0.3,0.2,0.5,0.5,0.5h11c0.3,0,0.5-0.2,0.5-0.5
		c-0.1-5.7-0.2-11.5-0.3-17.2c0-0.5,0.6-0.7,0.9-0.3c5.5,6,11,11.9,16.5,17.9c0.1,0.1,0.2,0.2,0.4,0.2h9.7c0.3,0,0.5-0.2,0.5-0.5
		v-36.1c0-0.3-0.2-0.5-0.5-0.5h-10.9c-0.3,0-0.5,0.2-0.5,0.5c0.1,5.7,0.1,11.5,0.2,17.2c0,0.5-0.6,0.7-0.9,0.3
		c-5.5-6-11-11.9-16.5-17.9C352.4,240.5,352.3,240.4,352.1,240.4"/>
	<path class="st0" d="M116.5,277v-36.1c0-0.3,0.2-0.5,0.5-0.5h27.9c0.3,0,0.5,0.2,0.5,0.5v7.3c0,0.3-0.2,0.5-0.5,0.5h-15.6
		c-0.3,0-0.5,0.2-0.5,0.5v5.6c0,0.3,0.2,0.5,0.5,0.5h14c0.3,0,0.5,0.2,0.5,0.5v6.8c0,0.3-0.2,0.5-0.5,0.5h-14
		c-0.3,0-0.5,0.2-0.5,0.5v5.1c0,0.3,0.2,0.5,0.5,0.5h15.8c0.3,0,0.5,0.2,0.5,0.5v7.3c0,0.3-0.2,0.5-0.5,0.5H117
		C116.7,277.5,116.5,277.3,116.5,277"/>
	<path class="st0" d="M113.1,240.4h-12.5c-0.2,0-0.4,0.1-0.5,0.3c-2.7,5.6-5.3,11.1-8,16.7c-0.2,0.4-0.7,0.4-0.9,0
		c-2.6-5.6-5.3-11.1-7.9-16.7c-0.1-0.2-0.2-0.3-0.5-0.3h-7.7c-0.2,0-0.4,0.1-0.5,0.3c-2.1,4.4-5.9,12.3-7.9,16.7
		c-0.1,0.3-0.6,0.4-0.8,0c-2.8-5.6-5.2-11.1-8-16.7c-0.1-0.2-0.2-0.3-0.5-0.3H45.2c-0.4,0-0.6,0.4-0.5,0.7
		c5.8,12,11.5,24.1,17.3,36.1c0.1,0.2,0.2,0.3,0.5,0.3h7.4c0.2,0,0.4-0.1,0.5-0.3c0.9-1.8,7.4-15.4,8.4-17.5c0.2-0.4,0.7-0.4,0.9,0
		c2.8,5.8,5.6,11.7,8.3,17.5c0.1,0.2,0.2,0.3,0.5,0.3h7.4c0.2,0,0.4-0.1,0.5-0.3c5.8-12,11.5-24.1,17.3-36.1
		C113.8,240.8,113.5,240.4,113.1,240.4"/>
</g>
<g>
	<defs>
		<path id="SVGID_1_" d="M-112.1,222.9c-17.2,18.2-16.3,46.9,1.9,64c8.5,8,19.3,12.1,30.1,12.3h1.9c11.7-0.2,23.4-5,32.1-14.2
			C-29,266.8-29.8,238.2-48,221c-8.8-8.2-19.9-12.3-31-12.3C-91.1,208.7-103.2,213.5-112.1,222.9"/>
	</defs>
	<clipPath id="SVGID_2_">
		<use xlink:href="#SVGID_1_"  style="overflow:visible;"/>
	</clipPath>
	
		<radialGradient id="SVGID_3_" cx="-170.3545" cy="716.7307" r="5.7726" gradientTransform="matrix(8.1343 -8.6435 -8.6435 -8.1343 7488.9707 4586.4404)" gradientUnits="userSpaceOnUse">
		<stop  offset="0" style="stop-color:#FFFFFF"/>
		<stop  offset="6.500000e-002" style="stop-color:#FFFFFF"/>
		<stop  offset="0.2415" style="stop-color:#F1F2F2"/>
		<stop  offset="0.4396" style="stop-color:#DDDEDE"/>
		<stop  offset="1" style="stop-color:#A5ACAB"/>
	</radialGradient>
	<polygon class="st1" points="-174.5,256.7 -82.1,158.6 16.3,251.3 -76.1,349.4 	"/>
</g>
<g>
	<defs>
		<path id="SVGID_4_" d="M-81,297.4c-22.5-1.5-40.3-20.2-40.3-43c0-23.8,19.4-43.1,43.2-43.1c23.8,0,43.2,19.3,43.2,43.1
			c0,23.8-19.4,43.1-43.2,43.1C-79.1,297.5-80.1,297.4-81,297.4 M-127,252.1v4.8c1.2,25.9,22.7,46.6,48.9,46.6c27,0,49-22,49-49
			c0-25.9-20.1-47.1-45.6-48.9c-1.1-0.1-2.3-0.1-3.4-0.1C-104.3,205.5-125.8,226.2-127,252.1"/>
	</defs>
	<clipPath id="SVGID_5_">
		<use xlink:href="#SVGID_4_"  style="overflow:visible;"/>
	</clipPath>
	
		<radialGradient id="SVGID_6_" cx="-160.1644" cy="709.0333" r="5.7726" gradientTransform="matrix(13.5507 -11.3713 -11.3713 -13.5507 10140.3242 8001.8862)" gradientUnits="userSpaceOnUse">
		<stop  offset="0" style="stop-color:#DDDEDE"/>
		<stop  offset="0.1208" style="stop-color:#B0B5B4"/>
		<stop  offset="0.2317" style="stop-color:#8F9695"/>
		<stop  offset="0.3234" style="stop-color:#7A8382"/>
		<stop  offset="0.3846" style="stop-color:#737C7B"/>
		<stop  offset="0.5219" style="stop-color:#5A6362"/>
		<stop  offset="0.6666" style="stop-color:#464F4D"/>
		<stop  offset="0.7637" style="stop-color:#3F4846"/>
		<stop  offset="0.8621" style="stop-color:#394240"/>
		<stop  offset="0.9937" style="stop-color:#2A3130"/>
		<stop  offset="1" style="stop-color:#29302F"/>
	</radialGradient>
	<polygon class="st2" points="-175.2,246 -69.6,157.3 19.1,263 -86.6,351.7 	"/>
</g>
<g>
	<defs>
		<path id="SVGID_7_" d="M-108,283.8c-7.6-7.6-12.3-18-12.3-29.6c0-11.6,4.7-22,12.3-29.6c7.6-7.6,18.2-12.2,29.8-12.2
			c11.6,0,22.2,4.7,29.8,12.2c7.6,7.6,12.3,18,12.3,29.6c0,11.5-4.7,22-12.3,29.6c-7.6,7.6-18.2,12.2-29.8,12.2
			C-89.9,296-100.4,291.3-108,283.8 M-122,254.2c0,24,19.6,43.4,43.7,43.4c24.2,0,43.7-19.4,43.7-43.4c0-24-19.6-43.4-43.7-43.4
			C-102.4,210.8-122,230.2-122,254.2"/>
	</defs>
	<clipPath id="SVGID_8_">
		<use xlink:href="#SVGID_7_"  style="overflow:visible;"/>
	</clipPath>
	
		<linearGradient id="SVGID_9_" gradientUnits="userSpaceOnUse" x1="-146.0498" y1="728.4767" x2="-140.2771" y2="728.4767" gradientTransform="matrix(-2.6137 -14.8229 -14.8229 2.6137 10345.7041 -3771.9014)">
		<stop  offset="0" style="stop-color:#DDDEDE"/>
		<stop  offset="4.791966e-002" style="stop-color:#C5C7C7"/>
		<stop  offset="0.1422" style="stop-color:#9C9F9F"/>
		<stop  offset="0.2421" style="stop-color:#787D7C"/>
		<stop  offset="0.3469" style="stop-color:#5B6160"/>
		<stop  offset="0.4582" style="stop-color:#454B4A"/>
		<stop  offset="0.5791" style="stop-color:#353C3B"/>
		<stop  offset="0.7165" style="stop-color:#2C3332"/>
		<stop  offset="0.9066" style="stop-color:#29302F"/>
		<stop  offset="1" style="stop-color:#29302F"/>
	</linearGradient>
	<polygon class="st3" points="-119.3,312.6 -136.8,213.4 -37.1,195.8 -19.6,295 	"/>
</g>
<g>
	<defs>
		<path id="SVGID_10_" d="M-109.1,284.6c-7.9-7.8-12.8-18.6-12.8-30.6c0-11.9,4.9-22.8,12.8-30.6c7.9-7.8,18.8-12.7,30.9-12.7
			c12.1,0,23,4.8,30.9,12.7c7.9,7.8,12.8,18.6,12.8,30.6c0,11.9-4.9,22.8-12.8,30.6c-7.9,7.8-18.8,12.7-30.9,12.7
			C-90.3,297.3-101.2,292.5-109.1,284.6 M-109.5,223.1c-8,7.9-12.9,18.9-12.9,31c0,12.1,4.9,23,12.9,31c8,7.9,19,12.8,31.2,12.8
			c12.2,0,23.2-4.9,31.2-12.8c8-7.9,12.9-18.9,12.9-31c0-12.1-4.9-23-12.9-31s-19-12.8-31.2-12.8
			C-90.4,210.3-101.5,215.1-109.5,223.1"/>
	</defs>
	<clipPath id="SVGID_11_">
		<use xlink:href="#SVGID_10_"  style="overflow:visible;"/>
	</clipPath>
	
		<radialGradient id="SVGID_12_" cx="-159.1972" cy="708.6418" r="5.7726" gradientTransform="matrix(14.1286 -11.8378 -11.8563 -14.1065 10559.084 8326.9893)" gradientUnits="userSpaceOnUse">
		<stop  offset="0" style="stop-color:#DDDEDE"/>
		<stop  offset="3.846150e-002" style="stop-color:#DDDEDE"/>
		<stop  offset="0.511" style="stop-color:#9DA9AB"/>
		<stop  offset="0.8422" style="stop-color:#E3E6E7"/>
		<stop  offset="1" style="stop-color:#FFFFFF"/>
	</radialGradient>
	<polygon class="st4" points="-165.6,246.4 -70.6,166.8 9.1,261.6 -85.9,341.3 	"/>
</g>
<g>
	<path class="st5" d="M-63.5,258.3c2.9-6.1,5.4-11.5,8.3-17.6c0.1-0.2,0.7-0.3,0.9-0.3c4.4,0,9.4,0,13.8,0c0.4,0,0.7,0.4,0.5,0.7
		c-6.3,13.1-12.8,26.7-19.1,39.8c-0.1,0.2-0.3,0.3-0.5,0.3h-8.9c-0.3,0-0.4-0.1-0.5-0.3c-3-6.4-5.3-12.8-8.3-19.2
		c-0.2-0.4-0.6-0.1-0.8,0.3c-1.1,2.3-2.3,4.8-3.5,7.2c-0.3,0.5-1.6,0.7-2-0.2c-2-4.4-2.9-9.2-5.2-13.5c-0.1-0.2-0.1-0.3,0-0.5
		c2.2-4.8,4-9.5,6.3-14.3c0.1-0.2,0.2-0.3,0.5-0.3c2.9,0,5.9,0,8.7,0c0.3,0,0.4,0.1,0.5,0.3c2.9,6.1,5.5,11.5,8.4,17.6
		C-64.2,258.8-63.7,258.8-63.5,258.3"/>
	<path class="st5" d="M-84.2,274.3c-5.3-11-10.8-22.5-16-33.6c-0.1-0.2-0.3-0.3-0.5-0.3c-4.4,0-9.4,0-13.8,0c-0.5,0-1,0.5-0.9,0.9
		c6.3,13,12,26.5,18.2,39.5c0.1,0.2,0.2,0.5,0.5,0.5c2.9,0,6.5,0,9.1,0c0.2,0,0.4-0.1,0.5-0.3c1.3-2.8,2.4-5,3-6.2
		C-84.1,274.6-84.1,274.5-84.2,274.3"/>
	<path class="st6" d="M-64.6,258.9c2.9-6,5.7-12.1,8.6-18.1c0.1-0.2,0.2-0.3,0.5-0.3H-42c0.4,0,0.7,0.4,0.5,0.8
		c-6.2,13.1-12.5,26.1-18.7,39.2c-0.1,0.2-0.2,0.3-0.5,0.3h-8.1c-0.3,0-0.4-0.1-0.5-0.3c-3-6.3-6-12.6-9-19c-0.2-0.4-0.8-0.4-1,0
		c-1.1,2.3-2.4,5-3.6,7.5c-0.2,0.4-0.7,0.4-0.9,0c-2.2-4.6-4.4-9.1-6.6-13.6c-0.1-0.2-0.1-0.3,0-0.5c2.2-4.8,4.4-9.3,6.7-14.1
		c0.1-0.2,0.2-0.3,0.5-0.3h8.3c0.3,0,0.4,0.1,0.5,0.3c2.9,6.1,5.8,12.1,8.7,18.1C-65.4,259.3-64.8,259.3-64.6,258.9"/>
	<path class="st0" d="M-85.6,274.2c-5.3-11.1-10.7-22.4-16.1-33.5c-0.1-0.2-0.3-0.3-0.5-0.3c-4.5,0-8.9,0-13.4,0
		c-0.4,0-0.7,0.4-0.5,0.8c6.3,13.1,12.4,26.1,18.7,39.2c0.1,0.2,0.3,0.3,0.5,0.3c2.7,0,5.4,0,8.1,0c0.2,0,0.4-0.1,0.5-0.3
		c1-2,1.7-3.7,2.7-5.7C-85.5,274.5-85.5,274.4-85.6,274.2"/>
	<path d="M260.1,341.5c-1.5,0.2-28.7,3.4-36.2,4.7c-7.5,1.3-17.4,3-27,4.8c-1.4,0.3-2.6-1.2-0.7-1.8c2-0.6,3.4-0.7,5.6-1.2
		c18.7-4.2,57.5-8.8,58.7-8.9C261.7,339,262.5,341.2,260.1,341.5"/>
</g>
<g>
	<path d="M247.8,316.9c-0.2-0.2-0.6-0.6-1.4-0.8c-1.7-0.4-3.6-0.7-5.3-0.6c-1.4,0-3.6,0.8-5,2c-0.9,0.7-1.4,1.5-1.6,2.4
		c-0.2,1.2,0.1,2.3,0.9,3.3c0.3,0.4,0.6,0.8,1,1.1c0.6,0.5,1.1,0.9,1.8,1.4c0.2,0.1,0.4,0.3,0.6,0.4c0.2,0.2,0.4,0.3,0.7,0.4
		l0.6,0.5c0.4,0.3,0.9,0.6,1.3,1c0.2,0.1,0.3,0.3,0.5,0.5c0.5,0.7-1.4,1.9-2.3,2.5c-1.7,1-3.7,1.6-5.8,1.7c-0.2,0-0.4,0-0.6-0.4
		c-0.2-0.3-0.4-0.5-0.6-0.8c-0.2-0.2-0.4-0.2-0.7-0.2h0c-0.3,0-0.7,0.2-0.9,0.5c-0.5,0.7-0.5,1.3-0.1,1.9c0.3,0.6,0.7,1,1.4,1.3
		c0.8,0.3,1.6,0.5,2.4,0.5l0.3,0c0.4,0,0.9-0.1,1.4-0.2c0,0,3.7-0.5,7.3-3.2c0.7-0.6,1.2-1.3,1.2-1.3s1.1-1.7,0.2-3.4
		c-0.4-0.8-0.9-1.4-1.6-1.8c-0.1-0.1-0.2-0.1-0.2-0.2c-0.1-0.1-0.1-0.1-0.2-0.2c-0.8-0.6-1.7-1.1-2.6-1.7c-0.8-0.5-1.5-1.1-2.1-1.8
		c-0.4-0.4-0.6-0.8-0.1-1.4c0.5-0.6,1.6-1.5,4.8-1.6c0.2,0,1.6,0.1,2.1,0.1c0.5,0,1.5,0.1,2.2-0.1c0.7-0.2,0.7-0.5,0.8-0.8
		C248,317.5,248,317.1,247.8,316.9"/>
	<path d="M260.2,349.8c1.6-1.7,2.8-3.8,3.8-6.4c1.1-2.8,1.7-5.7,2.1-8.2c0.2-2.2,0.4-3.9,0.7-6.8c0-0.6,0.1-1.9,0-2.5
		c0,0-1.5,2.2-2.4,3.3c-0.7,0.8-1.7,1.9-2.9,2.9c-0.8,0.6-1.6,1.2-3.1,1.2c-1.8,0-2.9-0.5-3.5-2.1c-0.5-1.3-0.5-3.1-0.2-4.3
		c0.9-4,5.1-9.6,5.4-10c1.1-1.2,1.2-1.4,2.2-2.2c0.6-0.6,2.1-1.9,3.4-2c0.5-0.1,1.2,0.1,1.8,0.4c0.3,0.1,0.5,0.6,0.8,0.5
		c0.3-0.1,0.7-0.8,1.4-0.9c0.6-0.1,1.4,0.1,1.9,0.5c0.5,0.4,0.8,1,0.8,1.9c0,0,0,0.5-0.2,1.5c-0.6,2.9-1.9,6-1.8,7.4
		c0.1,1.4-0.2,4.3-0.4,5.4c-0.3,2.2-0.9,5.9-0.9,5.9c-0.7,4.1-2.3,9.2-3.5,11.5c-1.2,2.3-2.5,4.5-5.7,6.5c-1.9,1.2-4.9,1.8-5.1,1.9
		c-1.3,0.2-3.9,0.2-4.8-0.6c-0.5-0.5,0-1.1,0.1-1.2c0.5-0.3,1.4-0.1,1.7-0.1c1.5,0.1,3-0.2,3.6-0.3
		C257.5,352.3,259.1,351,260.2,349.8 M266.9,317.2c-0.2-0.6-0.7-1.1-1.5-1.1c-0.9,0-1.9,1-2.3,1.4c-3.5,3.2-5.3,6.4-5.8,10.4
		c-0.1,1.1,0.2,1.5,0.5,1.7c1.3,0.7,2.4-0.4,2.6-0.5c3.3-3,5.2-5.9,6.5-9.4C267.4,318.4,267,317.4,266.9,317.2"/>
</g>
<g>
	<path d="M285.4,319.2c0-0.3-0.2-0.4-1,0.4c-1.2,1.3-6.4,6.6-8,8.4c-0.7,0.7-1.2,0.8-1.8,0.8c-1.2,0.1-2.1-0.6-2.2-2
		c0-1.3,0.2-2.9,0.6-4.2c0.7-2.9,1.5-5.8,2.3-8.7c0.1-0.3,0.3-0.8,0.4-1.1c0.4-0.6,1-1,1.7-0.9c0.8,0.2,1.3,1.2,1.2,2
		c-0.1,0.6-0.2,1.1-0.3,1.6c-0.7,2.2-1.3,4.4-1.9,6.6c-0.3,1.1,0.3,0.9,0.6,0.7c0.4-0.3,1-0.8,1.4-1.2c2.1-2,4.2-4.2,6.3-6.4
		c0.6-0.6,1.2-1.1,1.9-1.7c0.7-0.5,1.8,0,2.2,0.6c0.2,0.2,0.3,0.9,0.3,1.4c0.1,1.3-0.2,2.4-0.5,5.2c-0.4,2.6-0.6,4.6-0.4,6.8
		c0.1,1.7,0.7,2.8,2.2,3.7c0.3,0.1,0.6,0.2,0.8,0.4c0.3,0.2,0.4,1.1,0.2,1.3c-0.3,0.5-1,0.5-1.4,0.4c-2.6-0.7-4.2-2.6-4.6-5.2
		C285,326.7,285.1,322.4,285.4,319.2"/>
	<path d="M307.7,324.5c-0.2-0.1-0.6-0.2-0.9,0c-0.6,0.2-1.1,0.5-1.7,0.7c-0.5,0.2-1.1,0.5-1.7,0.7c-2.2,0.8-4.3,1.2-6.7,1.5
		c-0.3,0-0.6,0-0.9-0.1c-0.4-0.1-0.9-0.4-1.2-0.8c-0.5-0.7-0.7-1.5-0.6-2.4c0.1-1.4,0.3-1.8,0.4-1.9h0c0.1-0.1,0.1-0.1,0.4,0
		c0.1,0,0.4,0,0.6,0c0.9-0.1,3.2-0.6,4.1-1c1.9-0.8,4-1.8,5-3c1-1.2,0.2-3.4-0.1-4.4c-0.6-1.7-1.7-2.9-3.3-2.9c-0.3,0-0.6,0-0.9,0.1
		c-0.4,0.1-0.9,0.3-1.4,0.5c-1.8,0.9-2.9,1.7-4.2,2.8c-0.3,0.3-1.1,1.1-1.3,1.5c-1.1,1.7-1.9,3.8-2.3,6c-0.2,1.2-0.3,2.5-0.3,3.9
		c0.2,2.5,2.2,4.6,4.9,4.9c0.5,0,1.1,0.1,1.7,0.1c1,0,1.8-0.1,2.5-0.4c2.9-0.9,5.5-2.1,7.8-3.6l0.5-0.4c0.4-0.3,0.5-0.8,0.3-1.1
		C308.3,325,308.1,324.7,307.7,324.5 M295.5,318.2c0.6-0.8,0.9-1.2,0.9-1.2c0.5-0.8,2.7-2,3.7-2c0,0,0.1,0,0.1,0c0,0,0.1,0,0.2,0.1
		c0.3,0.1,0.9,1.4,0.6,1.8c-0.6,0.7-4.2,2.4-5.4,2.4c-0.2,0-0.4-0.1-0.5-0.3C295.1,318.9,295.4,318.5,295.5,318.2"/>
	<path d="M234.5,330.3c-0.3-0.1-0.6-0.2-0.9,0c-0.6,0.2-1.2,0.5-1.8,0.8c-0.6,0.3-1.2,0.5-1.7,0.7c-2.3,0.8-4.5,1.3-7,1.6
		c-0.3,0-0.7,0-1-0.1c-0.4-0.1-1-0.4-1.2-0.9c-0.5-0.7-0.8-1.6-0.6-2.5c0.2-1.5,0.3-1.9,0.4-2h0c0.1-0.1,0.2-0.1,0.5,0
		c0.1,0,0.5,0,0.6,0c1-0.1,3.3-0.7,4.2-1c2-0.8,4.2-1.9,5.2-3.1c1-1.3,0.2-3.6-0.1-4.6c-0.6-1.8-1.8-3-3.5-3c-0.3,0-0.6,0-1,0.1
		c-0.4,0.1-1,0.3-1.5,0.5c-1.9,1-3.1,1.8-4.4,2.9c-0.3,0.3-1.1,1.1-1.3,1.5c-1.2,1.8-2,3.9-2.4,6.3c-0.2,1.2-0.3,2.6-0.3,4
		c0.2,2.7,2.3,4.8,5.1,5.1c0.5,0,1.1,0.1,1.8,0.1c1,0,1.9-0.1,2.6-0.4c3-0.9,5.8-2.2,8.2-3.7l0.5-0.4c0.4-0.3,0.5-0.8,0.3-1.2
		C235.1,330.8,234.9,330.5,234.5,330.3 M221.8,323.8c0.6-0.9,0.9-1.2,0.9-1.2c0.6-0.8,2.8-2.1,3.9-2.1c0,0,0.1,0,0.1,0
		c0,0,0.1,0,0.2,0.1c0.4,0.1,1,1.4,0.6,1.9c-0.6,0.7-4.4,2.5-5.6,2.6c-0.2,0-0.4-0.1-0.5-0.3C221.4,324.5,221.6,324.1,221.8,323.8"
		/>
	<path d="M365.5,311.9c-0.8-1.8-1.9-3.2-2.9-3.8c-1-0.6-1.8-1-2.3-1.1c-1.1-0.4-3.4-0.6-5-0.6c-0.7,0-3.1,0.2-3.1,0.2
		c-0.5,0-1.7,0.2-1.9-0.3c-0.2-0.3,0.2-1.1,0.3-1.4c1.1-3,3.2-5.7,6.1-7.6c1.2-0.8,1.8-1.2,3.1-1.3c0.5,0,1,0.1,1.4,0.5
		c0.3,0.3,0.5,0.8,0.5,1c0.6,2.8-1.3,4.7-1.5,5.1c-0.5,0.8,0.1,1.4,0.4,1.6c0.2,0.1,0.7,0.3,1.2,0c1-0.8,1.7-1.9,2.3-2.9
		c1-1.9,1-4,0.1-6c-0.8-1.8-2.6-3-4.5-3c-0.9,0-2.1,0.5-2.8,0.9c-3.8,2.2-6.2,4.7-8.1,8c-0.4,0.8-0.9,1.6-1.3,2.4
		c-0.4,0.8-0.8,1.6-1.3,2.3c-0.5,0.8-1.4,1.9-2.1,2.1c-1.2,0.2-3.3,0.5-4,1c-0.5,0.3-0.8,1.1-0.9,1.5c-0.1,0.6,0,0.9,0.4,1.2
		c1.3,0.8,4.6-1.2,4.1,0.9c-0.2,0.7-1,4.5-1.4,6.1c-0.8,3.4-1.3,6.6-1.5,9.7c-0.2,4.5,0.2,8.7,0.2,9.7c0.1,1.2,0.7,5.6,0.8,6
		c0.2,0.8,0.5,1.8,1.4,1.9c0,0,1.7,0.1,1.2-1.8c0,0-0.5-2.4-0.6-3.1c-0.5-3.4-0.5-8.1-0.5-8.1s0.2-3.3,0.3-4.4
		c0.7-5.3,1.6-11,3.6-16.2c0.5-1.2,1.4-1.9,3.2-2.2c0.2,0,1.7-0.3,2-0.3c0.5,0,1.1-0.1,1.9-0.1c-2.9,3.2-4,6.2-4.6,8.4
		c-0.7,2.9-0.4,4.7-0.4,4.7c0.1,1.9,0.9,3.3,2.4,4.3c0.8,0.5,1.5,0.8,2.2,0.8c0.2,0,0.4,0,0.5,0c2.1-0.3,3.2-0.8,5.2-2.1
		c2.7-1.8,4.1-3.8,5.2-5.7c0.2-0.3,0.6-1.1,0.8-1.7C366.1,316.4,366.3,313.7,365.5,311.9 M363.5,315.6c-0.2,1.1-0.4,3.5-2.9,5.8
		c-1.1,1.1-2.4,2.1-3.8,2.8c-0.7,0.3-1.3,0.6-2,0.8c-1.2,0.3-2.4-0.5-2.6-1.7c-0.1-0.4-0.2-0.8-0.1-1.1c0-3.7,2.4-7.9,2.5-8
		c0.2-0.3,0.4-0.6,0.6-0.8c1.1-1.4,2.6-2.1,3.7-2.4c0.4-0.1,0.8-0.2,1.6-0.1c1.1,0.2,2.4,1.4,2.8,2.5
		C363.6,314.3,363.7,314.7,363.5,315.6"/>
	<path d="M385,308.1c-3.3,1.2-5.8,2.5-8.5,4.7c-0.3,0.2-2.7,2.3-3.5,3.5c-1.8,2.7-1.9,3.7-2.5,7.7c-0.1,0.9-0.2,2.9-1.6,3.6
		c-1,0.5-2.1,0.1-2.3-0.9c-0.1-0.1-0.2-1-0.2-1.8c0-2.5,0.5-4.8,0.9-7.1c0.5-2.6,0.6-5.4,1.4-8c0.1-0.4,0.4-1.6,1.9-1.4
		c1,0.1,1.5,1.5,1.4,2.5c-0.1,0.8-0.2,1.4-0.4,2.2c0,0.1-0.1,0.7-0.1,0.7s1.6-1.5,2.3-2.1c3.1-3,8.9-6.1,12-6.3
		C388.2,305,388,307,385,308.1"/>
	<path d="M441.4,310c-0.8,0.7-2.9,1.9-4.1,2.7c-0.3,0.2-2.7,2.1-3.5,3.3c-1.8,2.7-1.5,2.7-2.1,6.7c-0.1,0.9-0.2,2.9-1.6,3.6
		c-1,0.5-2.1,0.1-2.3-0.9c-0.1-0.1-0.2-1-0.2-1.8c0-2.5,0.5-4.8,0.9-7.1c0.5-2.6,0.4-3.9,1.2-6.5c0.1-0.4,0.6-1.8,1.9-1.6
		c1,0.1,1.4,1.1,1.2,2.1c-0.1,0.8-0.5,3.2-0.5,3.2s1.3-1.7,3.5-3.3c1.4-1.1,2.9-2.1,4.9-2.8C442.2,307.1,443.1,308.6,441.4,310"/>
</g>
<g>
	<path d="M408.1,311.6c0.2,0.5,0.7,2.9,0.9,4.4c0.5,2.8-0.2,5.8-1.9,9.1c-0.5,1.1-1.4,1.5-2,1.5c-0.9,0.1-1.6-1.1-2.4-2.1
		c-0.8-0.9-2.4-3.5-3.4-3.5c-0.6-0.1-5.4,3.7-7.1,4.8c-0.4,0.3-1.5,1-2.7,1c-0.8,0-1.8-0.9-1.8-2.6c0-1.5,0.4-2.9,0.9-4.1
		c0.7-2.3,2.5-5.8,4.1-8.2c0.8-1.3,1.6-2.7,3.6-4c1.1-0.7,2.6,0.4,2.4,1.3c-0.2,1-1.1,1.8-1.5,2.2c-0.3,0.4-1.5,1.9-2.3,3.3
		c-1.1,1.7-1.5,2.6-2.7,5c-0.2,0.5-1.1,3-0.7,3.1c0.2,0,2.1-1.2,3.1-2c1.7-1.2,4.4-3,5.3-2.9c1.1-0.2,3.5,2.2,4.2,3.3
		c0.1,0.2,0.6,0.8,1.1,1.2c0.5,0.4,1-2.2,1.1-2.8c0.2-2,0.1-3.9-0.4-5.7c-0.1-0.1-1.2-3.2-2.1-4.7c-0.9-1.6,1.2-2.6,2.2-1.8
		C407.2,308.5,407.9,311,408.1,311.6"/>
	<path d="M465.9,328.6c-6.1-0.9-11-3.8-15.4-8.1c-0.5-0.5-1-1.1-1.5-1.6c-0.2-0.1-0.6-0.1-0.8,0.1c-2.1,1.9-5.7,6.6-5.9,6.8
		c-1.8,1.6-4.1,0.2-3.6-1.4c0.5-1.7,3.5-10.2,5.1-14.9c0.6-1.7,1.2-3.5,1.9-5.1c1.6-3.9,3.1-7.3,3.6-8c0.4-0.6,1.6-2.4,3.5-1.1
		c1.2,0.8,0.3,2.6-0.1,3.5c-0.4,0.9-4,7.1-5.3,11c-0.9,2.6-1.6,4.5-2.4,7c-0.1,0.1-0.2,0.9,0.4,0.7c0.6-0.2,3.2-2.7,4-3.4
		c0.7-0.6,6.7-5.5,9.6-6.9c0.9-0.4,2-0.1,2,0.9c-0.1,1-1.6,2.1-2.5,2.7c-2.2,1.5-4.9,3.5-5.9,4.7c-0.7,0.9-0.4,2,0.1,2.6
		c2.4,3.1,5.4,4.9,9,6.3c3.2,1.3,6.5,2.3,10,2.2c1.9,0.1,2.1,2.1,0.5,2.3C470.3,329.1,467.3,328.8,465.9,328.6"/>
</g>
<g>
	<path d="M213.7,332.4c-2.1-7,0.3-14.3,0.8-16l0.3-1c0.7-2,1.2-3.4,2.7-5.9c0.8-1.2,1-2.4,0.7-3.2c-0.2-0.4-0.5-0.7-0.9-0.8l-0.2,0
		c-0.7,0-1.5,0.9-1.7,1.1c-1,1.4-2.9,5.1-3.1,5.8c-0.1,0.3-0.2,0.7-0.4,1.2c-0.7,1.9-1.9,5.1-2.3,8.3c-0.8-0.6-2.7-1.9-5-1.4
		c-2.6,0.6-5.8,2.4-8.3,8.3c-0.6,1.3-0.9,2.9-1.1,4.9c-0.2,1.8,0.2,3.5,1.1,4.6c0.6,0.7,1.3,1.1,2,1.2c0.5,0,0.9,0.1,1.4,0.1
		c4.5,0,6.7-2.3,8.2-4.3c1-1.4,1.5-1.8,2.2-3.4c0.3,3,3,6,4.2,6.7c2.1,1.2,2.8,1.6,6.2,1.6c2.6,0,2.9-2.3,0.8-2.3
		C220.6,337.9,215.1,337.4,213.7,332.4 M198.6,335.6c-0.8-0.9,0.2-4.2,0.5-5.2c0.7-2,0.8-2.2,2.3-4.1c0.7-0.9,1.5-1.5,2.4-2.1
		c0.7-0.5,1.4-0.7,2.2-0.7c1.1,0,2.2,0.9,2.7,1.6c0.4,0.5,0.5,0.8,0.5,1.4c0,1-3.4,9.7-8.8,9.6C199.9,336.2,199.1,336.2,198.6,335.6
		"/>
	<path d="M336.5,337.2c-1.5,0.2-32.3,1.4-47.8,2.4c-6.1,0.4-13.3,0.8-15.7,1c-2.4,0.2-2.4-1.9-0.7-2.1c1.4-0.2,62.8-3.3,64.2-3.3
		C337.9,335.2,338,337,336.5,337.2 M347.8,334.9c1.5,0,5.2-0.3,8.1-0.4l3.4-0.1c20.1-0.5,40.9-1.1,61.4-1.1
		c17.5,0,35.4,0.7,49.8,1.4c1.6,0.1,2.3,0.5,2.3,1.3c0,1.1-0.9,1.5-2.4,1.4c0,0-4.7-0.2-9.2-0.3c-18.6-0.7-38.3-1-58.8-1
		c-19,0-52.7,0.6-54.4,0.8C346.1,337.2,346,334.9,347.8,334.9"/>
	<path d="M328.8,323c-0.3,0-0.6,0.3-1,0.9c-1.2,1.7-1.8,2-2.2,2c-0.6,0-1.1-1.1-1.3-3.1c-0.9-6.6,1-14.3,1.5-16l0.3-1
		c0.7-2,1.2-3.4,2.7-5.9c0.8-1.3,1-2.4,0.7-3.2c-0.2-0.4-0.5-0.7-0.9-0.8l-0.2,0c-0.7,0-1.5,0.9-1.7,1.1c-1,1.4-2.9,5.1-3.1,5.8
		c-0.1,0.3-0.2,0.7-0.4,1.2c-0.7,1.9-1.9,5.1-2.3,8.3c-0.8-0.6-2-1.6-4.4-1.6c-1.8,0-6.4,2.6-8.9,8.5c-0.6,1.3-0.9,2.9-1.1,4.9
		c-0.2,1.8,0.2,3.5,1.1,4.6c0.6,0.7,1.3,1.1,2,1.2c0.5,0,0.9,0.1,1.4,0.1c4.5,0,6.7-2.3,8.2-4.3c1-1.4,1.2-1.8,1.9-3.4
		c0.3,2.3,0.7,5.2,1.7,6.5c0.4,0.6,1.2,0.9,2.2,0.9c0.6,0,1.1-0.1,1.6-0.3c1.9-0.9,2.9-4.6,2.7-5.7C329.3,323.1,328.9,323,328.8,323
		 M309.9,326c-0.6-1.1,0.2-4.2,0.5-5.2c0.7-2,1.1-2.6,2.6-4.4c0.7-0.9,1.7-1.6,2.7-2c0.2-0.1,1.2-0.4,1.6-0.4c1.1,0,2.2,0.9,2.7,1.6
		c0.4,0.5,0.6,1.1,0.5,1.4c-0.3,1-3,9.5-8.8,9.5c-0.5,0-1-0.1-1.4-0.2C310.2,326.3,310.1,326.3,309.9,326"/>
	<path d="M253.5,314.6c-0.2,0-0.3,0-0.5,0.1c-0.4,0.2-0.8,0.4-1.1,0.8c-0.5,0.6-0.9,1.3-1,1.5c-1.8,3.8-3.7,11.3-3.5,14.9
		c0.1,1,1,1.9,2.1,1.9c0.4,0,0.8-0.1,1.3-0.5c0.2-0.2,0.4-0.4,0.5-0.7c0.1-0.5,0.2-1.7,0.2-2.8c0-1.8,0.2-4.6,0.6-6.3
		c0.6-2.3,1.1-4.3,2.8-6.9c0.1-0.1,0.1-0.4,0.1-0.4c0.1-0.4-0.2-1.1-0.6-1.4C254,314.6,253.7,314.6,253.5,314.6"/>
	<path d="M259.2,306.6c-1-1.3-1.5-1.7-2.6-2.6l-0.3-0.2c-0.2-0.2-0.5-0.2-0.7-0.3c0,0-0.5-0.1-1.1,0.1c-0.6,0.3-0.9,0.9-1.1,1.6
		c-0.1,0.6,0,1.3,0.5,1.6c2.2,1.7,3.2,1.6,3.8,1.6c0.6,0,0.9-0.1,1.2-0.4c0.2-0.1,0.4-0.5,0.4-0.7
		C259.4,307.1,259.3,306.8,259.2,306.6"/>
	<path d="M426.1,311c-0.3-0.6-0.9-1.9-1-2c0-0.1-0.7-1.6-1.4-2.2c-1.4-1.3-3-1.6-4.6-0.9c-1.3,0.5-2.5,1.2-3.4,2.2
		c-3.1,3.3-4.3,6.4-4.9,8.7c-0.7,2.8-0.4,4.7-0.4,4.7c0.1,1.8,0.9,3.3,2.4,4.3c0.8,0.5,1.5,0.8,2.2,0.8c0.2,0,0.3,0,0.5,0
		c2.1-0.3,3.2-0.8,5.2-2.1c2.7-1.8,4.1-3.8,5.2-5.7c0.2-0.3,0.6-1.1,0.8-1.7C427.3,315,427.1,313,426.1,311 M424.7,314.2
		c-0.2,1.1-0.4,3.5-2.8,5.8c-1.1,1.1-2.3,2.1-3.7,2.8c-0.7,0.3-1.3,0.6-2,0.8c-1.2,0.3-2.4-0.4-2.6-1.7c-0.1-0.4-0.2-0.8-0.1-1.1
		c0-3.7,2.4-7.8,2.5-8c0.2-0.3,0.4-0.6,0.6-0.8c1.1-1.4,2.5-2.1,3.7-2.4c0.4-0.1,0.8-0.2,1.6-0.1c1.1,0.2,2.4,1.4,2.8,2.5
		C424.8,312.9,424.8,313.3,424.7,314.2"/>
</g>
</svg>
